<svg width="1026" height="1018" viewBox="0 0 1026 1018" fill="none" xmlns="http://www.w3.org/2000/svg">
<path d="M829.995 513.269L822.191 504.209L824.075 482.323L829.367 471.649L828.829 451.825L812.414 434.065L705.224 433.975L701.816 467.433L693.563 483.848L698.228 513.09L829.995 513.269L825.241 526.903L828.022 540.986L821.922 555.248L812.593 566.46L808.916 579.646L816.54 590.5L824.165 593.549L836.902 602.788L851.702 643.691V649.073L830.892 673.381L801.83 700.381L797.973 719.576L807.75 729.533L815.823 725.317L829.995 730.429L834.211 735.901L835.825 744.871L834.301 751.24L827.752 759.312L823.178 776.266L833.852 807.301L806.135 825.779L795.73 827.573L788.016 835.646L783.71 845.692L739.848 870.27L733.569 863.363L694.55 846.679L689.617 850.984L684.414 851.792L668.717 851.881L655.441 849.37L620.818 850.805L602.788 842.822L565.743 866.502L539.64 892.694H536.68L524.93 879.957L511.296 877.266L482.682 891.977L449.404 886.415L427.158 895.026L407.156 899.87L394.508 918.707L383.655 940.773L384.193 949.743L376.658 961.403L369.303 963.915L361.768 962.48L357.732 963.736L349.3 970.373L334.589 989.21L329.476 1006.25L334.5 1011.72L334.41 1014.77L331.181 1016.84L323.467 1012.71L321.314 1008.67L297.454 988.582L269.199 983.111L254.668 969.207L237.625 965.35L224.26 964.992L194.211 952.972L188.111 945.348L160.574 931.355L154.564 925.883L141.647 919.514L131.422 917.989L107.203 902.92L82.267 904.355L48.1813 898.076L47.0155 895.116L49.3474 887.582L54.4603 877.087L66.2108 861.3L65.4934 857.532L45.3112 849.46L35.0854 855.469L29.1652 853.765L26.6537 850.088L24.5908 840.131L26.9228 816.989L25.2185 801.112L16.6973 781.378L15.0825 750.612L2.43521 730.968L1 724.599L4.58789 694.012L27.4609 659.478L30.8695 633.376L37.1486 626.469L55.2676 618.934L72.4898 603.057L83.7022 584.938L86.6621 567.447L91.1471 558.387L102.628 549.059L109.984 536.232L110.701 522.418L126.399 513.718L138.957 490.216L162.727 489.05L187.125 481.336L189.995 478.825L207.755 441.241L214.124 432.63L219.865 395.853L223.273 389.216L240.495 371.814L255.296 362.755L264.893 360.422L275.926 366.522L286.78 359.974L299.248 347.147L306.783 320.865L317.277 295.122L317.188 287.946L312.882 277.72L318.085 253.143L332.436 225.426L331.36 178.962L342.214 171.966L351.452 148.375L369.392 119.94L372.891 110.343L371.455 85.9446L374.595 77.8716L383.296 70.1576L385.717 60.0216L385 54.3705L388.05 50.3343L389.844 33.4709L395.764 22.4378L411.999 3.69085L417.022 1L416.753 16.3384L405.81 33.2018L401.146 54.1912L422.673 57.7791L442.407 67.0181L477.659 70.606L505.375 85.9446L541.883 98.7715L547.534 96.7083L562.155 43.4273L575.341 21.9895L585.925 13.2887L596.24 25.0392L605.569 41.9026L615.525 75.1807L620.997 102.987L631.223 103.436L637.95 96.7083L640.641 87.7385L645.664 82.8949L670.421 85.9446L711.055 81.1906L713.028 87.8282L708.005 101.821L736.08 115.007L766.13 121.106L772.319 120.389L776.893 90.7882L781.827 91.0573L795.371 114.559L799.497 116.711L815.464 108.638L838.068 89.9809L878.702 81.0111H892.605L915.568 71.1441L931.175 59.1246L979.254 46.3875L1003.65 68.4533L1003.83 71.8619L991.004 81.3699L986.699 103.974L987.596 106.934L1002.22 114.469L1001.68 122.9L999.615 126.309L985.353 135.548L974.679 169.902L974.231 183.806L979.792 215.38L995.04 246.415L1023.83 269.916L1024.28 274.132L1017.82 286.87L1016.93 292.879L1022.94 308.307L1025 319.789L1022.76 326.696L1009.48 344.366L1000.51 353.426L971.539 350.376L963.467 334.589L941.76 321.314L931.265 334.679L936.467 368.495L931.355 373.339L927.766 374.505L902.83 364.28L892.336 366.342L889.017 368.854L882.558 397.378L889.017 398.275L893.412 408.68L888.299 417.112L881.751 423.391L882.11 440.434L885.877 445.905L890.631 447.609L896.821 485.821L892.067 490.575L861.928 498.648L841.387 512.193L829.995 513.269Z" fill="#CCCCCC"/>
<path d="M829.995 513.269L822.191 504.209L824.075 482.323L829.367 471.649L828.829 451.825L812.414 434.065L705.224 433.975L701.816 467.433L693.563 483.848L698.228 513.09L829.995 513.269ZM829.995 513.269L825.241 526.903L828.022 540.986L821.922 555.248L812.593 566.46L808.916 579.646L816.54 590.5L824.165 593.549L836.902 602.788L851.702 643.691V649.073L830.892 673.381L801.83 700.381L797.973 719.576L807.75 729.533L815.823 725.317L829.995 730.429L834.211 735.901L835.825 744.871L834.301 751.24L827.752 759.312L823.178 776.266L833.852 807.301L806.135 825.779L795.73 827.573L788.016 835.646L783.71 845.692L739.848 870.27L733.569 863.363L694.55 846.679L689.617 850.984L684.414 851.792L668.717 851.881L655.441 849.37L620.818 850.805L602.788 842.822L565.743 866.502L539.64 892.694H536.68L524.93 879.957L511.296 877.266L482.682 891.977L449.404 886.415L427.158 895.026L407.156 899.87L394.508 918.707L383.655 940.773L384.193 949.743L376.658 961.403L369.303 963.915L361.768 962.48L357.732 963.736L349.3 970.373L334.589 989.21L329.476 1006.25L334.5 1011.72L334.41 1014.77L331.181 1016.84L323.467 1012.71L321.314 1008.67L297.454 988.582L269.199 983.111L254.668 969.207L237.625 965.35L224.26 964.992L194.211 952.972L188.111 945.348L160.574 931.355L154.564 925.883L141.647 919.514L131.422 917.989L107.203 902.92L82.267 904.355L48.1813 898.076L47.0155 895.116L49.3474 887.582L54.4603 877.087L66.2108 861.3L65.4934 857.532L45.3112 849.46L35.0854 855.469L29.1652 853.765L26.6537 850.088L24.5908 840.131L26.9228 816.989L25.2185 801.112L16.6973 781.378L15.0825 750.612L2.43521 730.968L1 724.599L4.58789 694.012L27.4609 659.478L30.8695 633.376L37.1486 626.469L55.2676 618.934L72.4898 603.057L83.7022 584.938L86.6621 567.447L91.1471 558.387L102.628 549.059L109.984 536.232L110.701 522.418L126.399 513.718L138.957 490.216L162.727 489.05L187.125 481.336L189.995 478.825L207.755 441.241L214.124 432.63L219.865 395.853L223.273 389.216L240.495 371.814L255.296 362.755L264.893 360.422L275.926 366.522L286.78 359.974L299.248 347.147L306.783 320.865L317.277 295.122L317.188 287.946L312.882 277.72L318.085 253.143L332.436 225.426L331.36 178.962L342.214 171.966L351.452 148.375L369.392 119.94L372.891 110.343L371.455 85.9446L374.595 77.8716L383.296 70.1576L385.717 60.0216L385 54.3705L388.05 50.3343L389.844 33.4709L395.764 22.4378L411.999 3.69085L417.022 1L416.753 16.3384L405.81 33.2018L401.146 54.1912L422.673 57.7791L442.407 67.0181L477.659 70.606L505.375 85.9446L541.883 98.7715L547.534 96.7083L562.155 43.4273L575.341 21.9895L585.925 13.2887L596.24 25.0392L605.569 41.9026L615.525 75.1807L620.997 102.987L631.223 103.436L637.95 96.7083L640.641 87.7385L645.664 82.8949L670.421 85.9446L711.055 81.1906L713.028 87.8282L708.005 101.821L736.08 115.007L766.13 121.106L772.319 120.389L776.893 90.7882L781.827 91.0573L795.371 114.559L799.497 116.711L815.464 108.638L838.068 89.9809L878.702 81.0111H892.605L915.568 71.1441L931.175 59.1246L979.254 46.3875L1003.65 68.4533L1003.83 71.8619L991.004 81.3699L986.699 103.974L987.596 106.934L1002.22 114.469L1001.68 122.9L999.615 126.309L985.353 135.548L974.679 169.902L974.231 183.806L979.792 215.38L995.04 246.415L1023.83 269.916L1024.28 274.132L1017.82 286.87L1016.93 292.879L1022.94 308.307L1025 319.789L1022.76 326.696L1009.48 344.366L1000.51 353.426L971.539 350.376L963.467 334.589L941.76 321.314L931.265 334.679L936.467 368.495L931.355 373.339L927.766 374.505L902.83 364.28L892.336 366.342L889.017 368.854L882.558 397.378L889.017 398.275L893.412 408.68L888.299 417.112L881.751 423.391L882.11 440.434L885.877 445.905L890.631 447.609L896.821 485.821L892.067 490.575L861.928 498.648L841.387 512.193L829.995 513.269Z" stroke="white" stroke-width="0.5"/>
</svg>
