<svg width="1026" height="589" viewBox="0 0 1026 589" fill="none" xmlns="http://www.w3.org/2000/svg">
<path d="M998.956 395.803L957.485 361.631L943.883 357.318L899.924 353.835L861.605 371.584L837.053 392.817L829.588 422.676L798.071 439.762L764.728 447.227L745.817 446.895V456.848L732.547 465.64L696.384 470.451L632.021 466.138L605.314 480.736L596.191 491.352L566 493.011L551.236 504.457L542.279 517.064L548.747 529.174L548.913 538.131L542.279 546.094L512.751 571.474L490.523 574.128L463.152 588.063L436.611 574.958L420.852 559.365L415.045 522.207L419.026 514.078L416.04 509.102L397.13 503.794L389.832 508.604L364.783 512.751L365.446 505.287L407.415 461.493L410.235 454.36L398.291 423.34L397.628 415.543L403.765 402.604L453.53 384.855L455.355 379.878L447.061 356.821L389.001 324.971L364.451 331.772L327.625 352.674L312.198 377.722L287.647 392.154L270.229 397.296L225.44 428.482L200.227 455.687L173.187 459.503L129.56 475.593L116.787 470.119L117.616 458.839L107.165 438.27L100.861 436.942L85.4343 449.052L60.3856 454.36L43.9633 448.886L20.7402 417.202L14.1045 415.709L11.2847 411.562L31.0249 392.983L57.732 335.09L52.0915 315.35L40.6454 314.023L20.076 299.259L20.4081 271.722L14.6026 259.778L4.98105 254.968L1 248.167L2.99052 232.74L5.81026 226.436L23.892 215.985L34.8399 194.254L26.2136 172.524L43.3001 122.759L57.2338 103.682L58.5612 94.7242L68.0167 87.0935L100.032 114.298L114.962 121.266L162.737 131.385L181.979 112.64L235.559 85.1029L249.161 73.3253L250.821 56.0733L257.622 40.3144L310.373 20.2423L334.094 18.2518L388.172 1L398.789 2.32685L407.581 9.62577L407.746 29.366L358.147 82.6148L350.848 98.5395L344.545 127.403L337.744 133.707L323.643 137.854L320.16 142.996L318.833 171.528L377.39 180.154L382.699 183.97L387.841 206.862L392.651 210.677L444.905 189.776L474.266 188.448L506.613 193.425L521.377 212.833L512.751 238.38L526.52 250.655L565.502 235.228L573.796 222.952L582.919 202.88L575.123 187.287L572.469 163.732L580.432 153.945L597.186 159.253L588.394 133.873L576.451 120.934L581.593 96.3832L611.784 73.9887L634.675 73.1593L641.643 79.6287L639.983 96.2171L650.268 104.346L707.001 110.981L715.792 116.787L812.503 110.317L848.499 115.294L889.307 133.541L906.559 126.906L964.618 130.389L980.045 126.408L981.538 166.22L1005.59 239.043L1006.59 249.66L1003.6 265.253L997.464 272.717L996.966 287.315L1006.59 275.04L1015.05 250.157L1015.21 283.002L1025 299.757L1020.52 385.684L1014.55 395.637L998.956 395.803Z" fill="black" stroke="white" stroke-width="0.5"/>
</svg>
