<svg width="1026" height="984" viewBox="0 0 1026 984" fill="none" xmlns="http://www.w3.org/2000/svg">
<path d="M695.648 983.201L375.053 965.483L201.747 953.163L182.961 945.577L175.986 947.868L174.204 946.29L173.186 940.74L170.385 937.074L162.087 934.783L157.912 935.649L153.075 933.663L151.904 931.118L152.108 925.517L150.937 920.731L133.729 912.076L118.455 898.025L110.614 892.373L106.949 881.173L104.505 869.004L105.676 856.582L101.756 848.283L94.9842 838.457L88.0092 818.347L86.0236 809.386L73.5501 788.716L67.5425 783.217L64.6404 780.366L63.8768 770.387L60.6184 763.972L52.5233 756.03L47.0757 753.077L45.192 750.175L40.9662 738.262L41.119 732.508L44.0719 727.57L51.4541 721.817L55.4253 715.147L207.653 388.087L198.438 379.584L199.1 375.613L198.133 373.169L191.056 374.951L186.728 378.057L177.208 374.086L171.607 363.038L157.912 355.655L151.446 348.833L151.039 345.778L144.318 341.604L137.343 340.84L125.888 337.531L113.771 330.861L104.199 327.45L97.3261 321.9L94.1187 317.318L70.8009 304.387L47.1775 285.193L45.6501 282.953L45.4465 278.218L42.6463 268.901L33.2784 262.639L29.7146 263.606L27.8817 262.588L18.5647 252.507L18.8193 241.764L20.6013 238.252L19.6848 236.164L11.0807 231.837L9.85878 228.375L8.94231 216.817L11.1316 209.435L9.09504 184.692L1 98.2935L4.81843 99.9227L7.0077 102.876L6.90585 105.319L9.19689 107.356L13.8808 108.781L20.8559 105.167L23.2487 101.043L37.0459 102.214L41.1698 96.8679L38.4206 87.6528L47.5339 85.82L54.7125 77.5212L68.1534 82.6634L77.7249 82.8161L80.4742 75.0775L97.428 66.8297L107.458 68.8152L113.364 68.2552L115.858 66.9824L121.968 59.4474L124.004 52.3197L131.437 46.7193L135.816 46.1592L139.125 48.5012L149.868 42.7481L151.955 43.3082L153.839 48.3485L157.555 50.6395L167.891 53.0833L176.088 54.3561L178.939 51.3014L187.441 49.3158L191.412 50.7414L195.587 50.6905L199.966 48.9594L211.37 50.4868L235.146 57.5127L240.034 56.7999L245.125 52.3706L244.972 40.7625L234.433 28.0345L228.12 24.827L230.615 16.2737L237.284 8.89141L238.71 3.24014L240.288 2.37464L243.903 3.34196L248.129 7.21131L260.093 12.8626L319.253 1L327.246 9.60418L332.439 9.90966L334.68 8.4332L337.836 11.3352L339.72 23.0451L336.563 29.6637L335.29 52.7779L336.512 60.1092L338.091 62.8585L344.047 62.9603L349.546 61.4839L366.805 63.3676L373.373 65.8623L383.199 71.2081L386.61 75.2811L389.105 81.7979L395.163 82.4088L400.967 86.6855L405.04 91.6749L409.317 93.0495L416.088 92.3367L418.023 90.1984L422.809 89.4857L437.268 103.028L440.73 102.876L443.225 108.883L439.763 110.054L438.795 113.72L442.665 128.128L452.949 139.634L466.033 143.351L466.899 145.031L464.71 161.017L465.677 171.76L469.088 179.448L472.245 182.299L475.248 191.514L474.587 199.558L482.223 217.276L486.398 218.243L490.369 216.41L505.287 233.109L504.879 245.481L506.967 250.267L511.804 251.234L513.484 253.627L515.062 261.671L513.993 265.184L514.553 271.803L524.073 278.88L526.263 286.516L533.645 291.76L547.849 295.222L554.468 294.611L558.388 292.88L563.174 293.186L560.476 296.953L561.952 305.049L561.087 307.747L554.519 313.398L547.442 314.264L544.897 313.347L540.62 309.325L537.26 308.561L520.051 316.606L518.168 319.355L510.022 323.021L506.814 322.919L498.923 325.923L499.126 328.875L532.016 323.479L536.496 326.839L537.158 329.181V332.541L534.001 335.087L535.529 336.92L538.736 335.901L543.115 330.81L548.308 330.759L551.006 329.385L554.061 329.996L559.508 327.857L565.312 324.955L582.012 313.042L589.648 311.26L599.016 307.136L615.105 297.768L617.854 292.677L621.265 290.029L631.906 284.887L635.266 281.222L633.993 277.81L635.062 275.723L640.815 274.297L646.365 274.603L648.452 275.672L650.387 295.019L647.739 308.154L649.42 316.402L653.544 324.548L660.213 331.421L661.74 339.771L661.129 342.164L651.762 351.531L649.369 352.193L644.939 349.546L635.673 346.898L629.258 345.32L624.523 346.033L613.679 340.738L612.355 335.036L607.875 332.338L596.267 351.786L593.161 363.852L596.623 378.973L599.067 382.232L603.751 385.388L598.609 379.584L596.42 365.889L597.031 363.241L610.115 341.756L621.876 347.764L622.436 350.055L635.317 362.529L634.044 372.813L630.277 375.613L632.313 387.476L634.96 393.229L640.663 397.047L644.43 397.811L647.078 400.306L645.347 397.047L641.426 395.825L635.317 390.53L634.197 387.068L635.928 365.685L640.103 359.627L647.383 363.343L651.609 369.453L651.151 373.475L657.26 377.853L658.533 376.377L653.442 369.962L648.758 359.27V357.03L660.264 345.218L668.512 345.677L678.338 348.935L680.069 351.786L676.963 354.79L678.592 356.215L681.036 356.368L686.28 355.503L693.051 350.921L713.875 346.033L717.795 347.051L726.654 352.448L742.793 350.31L748.24 348.222L753.434 343.08L758.423 340.076L767.282 337.48L771.202 337.836L771.507 341.654L761.121 362.121L759.899 369.758L757.557 375.206L753.332 380.45L753.281 384.93L756.234 392.16L754.604 404.735L759.085 398.676L759.136 391.549L766.976 376.275L772.729 360.034L778.432 352.092L779.806 350.717L783.675 350.462L786.628 348.68L795.894 347.509L800.375 340.636L808.062 332.032L814.987 320.526L817.634 318.184L821.656 320.679L824.813 318.337L833.06 330.25L839.119 333.254L838.864 329.486L837.082 325.668L840.239 320.526L858.109 317.929L852.865 316.3L834.995 318.642L833.417 317.573L834.893 305.201L837.49 303.725L840.901 305.659L846.094 306.219L851.542 290.437L848.08 283.36L848.232 279.898L854.189 270.683L868.648 258.056L870.481 257.649L876.132 263.453L891.05 252.812L893.392 252.456L895.428 254.747L895.937 257.649L894.308 261.06L899.756 260.246L903.879 257.293L905.712 253.322L908.92 252.354L910.345 253.118L914.113 260.195L920.884 266.304L921.902 263.453L921.342 261.518L916.455 259.024L915.742 257.547L915.08 251.438L915.946 249.299L918.186 248.332L929.794 249.656L935.802 252.965L938.958 258.158L947.257 261.773L955.657 257.802L958.356 268.697L955.81 270.275L955.657 273.279L960.341 270.632L966.247 258.667L968.182 259.838L967.011 266.61L969.098 268.85L981.877 267.526L984.168 270.835L986.51 279.389L983.455 284.225L987.783 281.68L989.107 283.563L998.729 284.276L1016.7 277.963L1015.12 286.007L1011.3 295.324L1018.79 292.83L1021.79 289.673L1025 297.921L1021.08 300.212L1018.69 305.456L1019.5 312.482L1015.89 334.832L1012.98 338.6L1007.18 339.363L1006.93 342.52L1008.3 345.015L1013.34 344.2L1015.53 346.898L1015.12 355.095L1010.54 370.471L1008.71 374.086L999.849 382.079L997.304 394.196L997.966 402.546L979.23 418.278L984.525 426.322L980.503 430.446L981.419 439.712L979.077 446.228L974.851 453.611L967.316 462.571L957.337 470.412L949.191 494.29L947.715 503.963L945.322 510.123L932.9 521.935L927.197 524.277L924.041 538.94L916.149 544.897L913.96 550.751L906.069 561.799L900.112 566.483L888.148 565.312L813.256 625.542L815.75 625.949L827.409 630.073L836.93 628.851L843.497 629.462L848.69 637.913L850.676 639.492L855.106 640.204L861.52 646.161L861.317 649.369L859.433 652.78L855.767 654.664L850.829 655.02L849.352 656.445L849.811 663.624L854.953 670.446L850.269 684.447L847.01 686.891L839.577 689.233L838.304 691.575L839.781 697.684L838.813 704.507L832.195 705.27L824.507 712.093L820.18 718.559L820.943 726.246L819.721 728.792L806.993 734.901L789.632 740.705L777.057 749.768L776.089 751.55L778.279 762.699L778.584 776.293L772.067 786.985L764.889 795.538L764.125 798.44L764.991 802.92L767.994 807.808L776.497 816.667L780.315 818.296L781.079 819.823L777.719 840.392L768.758 866.612L763.26 870.735L754.604 887.231L753.688 892.271L748.902 900.112L745.135 904.44L739.789 905.254L732.814 909.938L727.57 919.713L721.41 928.267L715.402 933.816L709.547 941.86L703.794 964.567L695.648 983.201ZM803.379 319.762L780.366 329.741L763.107 332.388L752.823 330.81L749.513 336.563L740.145 342.622L736.48 339.516L733.374 331.727L732.203 333.152L734.341 339.414L732.61 343.538L728.996 345.626L709.802 337.276L705.729 340.942L684.396 347.357L668.104 344.455L663.981 341.349L662.759 331.93L661.588 329.843L655.936 324.65L650.54 316.504L649.47 307.441L652.118 293.441L655.275 291.506L664.235 293.339L668.97 289.52L669.377 286.669L662.759 288.858L656.547 288.197L651.762 284.582L650.845 279.236L652.576 253.372L656.293 249.503L658.075 253.322L667.035 256.376L669.835 256.071L667.493 253.933L661.028 252.812L656.445 241.815L658.278 233.262L662.809 223.232L669.581 216.461L674.468 213.559L681.291 211.064L688.011 210.402L705.627 213.05L742.335 222.061L761.172 219.719L761.732 218.192L767.536 215.035L778.533 213.152L793.247 214.628L807.502 218.803L840.494 223.131L843.701 225.523L843.447 231.786L839.883 235.553L836.421 243.19L834.588 256.682L830.209 273.483L823.642 276.945L821.86 280.458L823.031 286.516L812.95 299.652L805.873 317.471L803.379 319.762ZM563.021 318.897L559.203 316.3L564.803 304.845L564.345 295.732L565.618 294.662L577.481 292.219L582.063 287.84L582.826 285.295L581.808 273.381L586.186 260.246L592.601 252.66L604.26 245.176L618.872 244.157L622.538 256.173L616.938 267.322L612.61 282.8L607.01 286.211L600.187 296.546L596.216 300.212L571.066 317.064L563.021 318.897ZM708.02 202.307L702.776 201.035L690.302 201.442L686.28 200.627L684.804 199.304L682.869 193.754L682.92 187.441L690.608 185.303L700.23 185.506L711.38 178.939L735.869 175.884L739.789 177.208L743.251 180.67L742.335 185.863L729.301 192.94L720.239 205.566L714.638 208.111L708.02 202.307ZM732.407 202.307L741.876 196.198L751.957 196.351L760.358 199.507L763.056 204.548L763.311 207.704L758.83 211.624L744.32 213.05L738.364 214.679L726.857 210.148L725.839 207.45L732.407 202.307ZM645.958 224.658L643.412 223.334L640.306 223.538L632.466 220.025L633.535 214.119L636.793 209.435L646.569 207.399L658.584 202.817L665.304 203.224L669.377 206.686L669.835 207.348L660.009 215.545L654.562 217.276L645.958 224.658ZM693.917 175.324L689.742 173.797L688.877 165.345L689.64 162.29L695.597 155.621L708.071 150.937L709.343 151.548L712.042 155.01L712.245 159.541L702.318 169.673L693.917 175.324ZM623.505 278.269L622.792 276.181L623.76 271.446L629.055 257.14L642.241 248.536L645.907 247.11L649.42 247.823L648.605 256.936L640.663 259.176L632.415 270.326L623.505 278.269ZM679.051 188.816L672.992 187.237L671.465 184.794L675.945 179.906L679.56 159.796L684.091 153.533L685.567 154.195L685.924 155.824L685.822 168.451L688.877 177.971L687.248 182.452L682.004 184.488L679.051 188.816ZM603.649 240.695L602.275 239.728L602.886 236.622L605.686 234.789L611.744 226.083L615.614 218.243L619.33 214.883L626.713 212.133L625.694 219.719L623.658 224.811L614.901 233.262L603.649 240.695ZM674.265 204.904L671.21 204.14L666.934 200.525L662.046 192.176L661.791 190.241L662.962 188.765L667.086 185.812L676.505 190.088L677.981 192.278L679.203 202.918L674.265 204.904ZM646.874 360.492L643.565 359.932L639.084 357.285L635.572 359.627L631.753 358.201L623.2 349.342V346.237L629.716 346.186L645.296 352.906L646.874 360.492ZM539.194 332.287L539.398 327.043L538.38 325.515L541.434 320.475L553.45 315.995L557.421 317.929L561.85 322.308L560.374 324.09L555.13 326.483L542.198 328.57L539.194 332.287ZM603.853 298.226L602.937 298.074L602.987 296.292L605.737 291.506L614.85 283.258L616.988 276.945L617.243 270.326L618.465 268.799L620.094 271.039V278.727L615.563 292.626L612.406 295.935L603.853 298.226ZM635.928 247.823L644.328 232.753L648.809 231.684L652.423 232.651L653.798 237.081L650.845 240.695L635.928 247.823ZM795.894 344.404L791.618 342.622L789.887 337.225L795.182 328.468L800.629 326.788L801.597 327.297L801.495 331.065L797.727 342.469L795.894 344.404ZM625.44 245.277L622.691 244.259L624.32 233.873L631.091 224.658L632.262 224.862L638.83 229.342L638.779 230.615L630.888 233.873L625.44 245.277ZM636.793 270.886L640.459 271.039L638.423 273.33L633.637 274.908L633.077 280.611L629.055 284.225L620.451 288.502L619.636 287.586L621.01 283.36L623.403 280.152L632.211 271.65L636.793 270.886ZM521.935 322.868L519.135 321.9L518.779 320.119L520.968 318.082L539.093 309.936L541.842 313.5L541.791 314.518L534.663 318.235L521.935 322.868ZM845.381 298.532L840.137 297.564L835.962 293.542L840.392 287.178L847.214 287.127L848.181 293.186L847.672 296.19L845.381 298.532ZM655.733 202.307L643.717 205.871L640.714 205.922L639.797 204.853L645.041 199.558L650.336 196.962L655.631 197.827L657.871 199.558L658.635 200.729L657.871 201.798L655.733 202.307ZM628.902 246.041L628.495 242.172L629.767 239.626L642.394 232.193L637.812 242.375L633.688 245.583L628.902 246.041ZM639.797 269.104L637.506 268.493L637.15 267.322L641.121 259.686L647.18 259.787L646.569 266.661L639.797 269.104ZM782.555 349.699L781.13 348.528L785.712 340.382L789.174 338.345L790.345 342.164L792.942 344.047L791.618 346.695L789.429 348.426L786.221 347.509L782.555 349.699ZM646.823 230.971L642.292 230.615L642.394 229.647L654.409 220.279L654.613 225.167L653.442 228.375L652.169 230.106L646.823 230.971ZM990.278 283.003L988.343 280.305L989.31 276.436L994.504 271.803L995.776 272.566L996.947 281.476L990.278 283.003Z" fill="#CCCCCC" stroke="white" stroke-width="0.5"/>
</svg>
