<svg width="1026" height="606" viewBox="0 0 1026 606" fill="none" xmlns="http://www.w3.org/2000/svg">
<path d="M1025 470.401L1008.25 474.724L945.206 470.941L926.473 478.146L882.162 458.333L843.076 452.929L738.064 459.954L728.518 453.649L666.915 446.445L655.747 437.618L657.549 419.606L649.983 412.581L625.127 413.482L592.345 437.799L586.761 464.457L599.729 478.507L609.276 506.065L591.084 500.302L582.437 510.929L585.32 536.506L593.785 553.438L583.878 575.233L574.872 588.562L532.544 605.313L517.593 591.984L526.96 564.245L510.929 543.171L475.805 537.767L443.923 539.208L387.184 561.904L381.961 557.761L376.377 532.904L370.613 528.761L307.029 519.395L308.47 488.413L312.252 482.83L327.563 478.327L334.948 471.482L341.793 440.14L349.718 422.849L403.575 365.029L403.396 343.594L393.849 335.669L382.321 334.228L323.6 352.961L297.843 355.122L240.564 376.917L233.179 394.029L231.377 412.762L216.607 425.55L158.428 455.451L137.534 475.805L85.6581 464.817L69.4466 457.252L34.683 427.712L24.4158 435.997L12.5281 442.842L1 439.78L7.12467 404.296L32.5216 363.768L47.6524 347.917L56.8378 346.656L70.8879 355.843L89.44 351.159L99.7072 331.346L126.006 304.147L151.223 260.197L148.521 246.868L160.229 216.788L175.9 206.52L191.03 186.347L250.47 65.8442L297.483 29.6395L385.563 1L394.029 14.6893L409.519 28.1985L465.898 28.0185L487.872 35.4033L518.313 66.9249L542.09 75.931L602.071 70.1672L653.947 79.5337L699.698 75.2107L741.667 62.0618L822.722 78.6331L845.598 79.3534L880.722 94.844L899.094 109.614L910.622 126.546L952.231 211.924L961.237 244.166L960.517 257.676L987.175 354.582L990.958 384.843L1003.93 394.569L1021.22 443.022L1025 470.401Z" fill="#CCCCCC" stroke="white" stroke-width="0.5"/>
</svg>
