<svg width="1026" height="846" viewBox="0 0 1026 846" fill="none" xmlns="http://www.w3.org/2000/svg">
<path d="M709.46 796.901L697.331 783.268L693.194 765.592L678.527 760.702L670.441 763.711L653.423 764.463L615.155 747.445L615.062 743.684L608.856 737.949L596.915 743.496L578.299 727.7L564.007 718.58L555.921 704.853L553.289 691.784L543.51 688.117L526.868 698.648L515.398 698.365L502.14 690.844L493.96 678.339L464.531 663.483L446.103 661.885L435.384 666.962L426.922 674.954L413.477 673.355L410.562 670.535L390.442 665.74L361.671 663.107L354.525 659.064L343.43 647.875L340.61 629.353L325.754 624.746L307.984 615.626L300.274 599.454L297.547 597.573L271.973 594.941L268.4 591.65L260.502 556.767L252.228 548.399L247.715 559.306L241.51 556.297L238.971 550.28L244.801 535.894L236.903 521.603L224.116 517.936L212.269 485.31L210.67 469.702L225.244 442.342L223.269 426.734L212.363 408.212L205.311 387.903L204.747 366.372L210.576 361.671L214.149 348.789L223.927 338.917L227.312 325.096L225.056 311.086L221.107 302.718L220.261 288.333L225.338 272.819L214.337 252.322L204.747 248.749L194.499 257.964L193.934 262.759L186.036 271.785H180.677L160.18 262.195L111.477 262.947L58.7299 279.683L42.84 279.589L28.9247 284.102L1 272.255L31.6514 248.185L49.7037 242.732L64.2772 225.714L65.6875 220.449L64.1832 208.32L101.416 210.764L128.401 207.662L135.17 211.14L156.889 233.048L160.368 232.86L171.839 225.432L173.061 218.662L176.916 213.679L187.071 208.978L194.31 210.2L207.191 206.533L219.414 195.157L236.715 185.566L240.287 186.413L246.305 207.662L252.699 212.645L259.092 211.893L282.974 182.182L280.529 165.728L285.512 157.83L301.966 145.983L306.291 146.171L314.189 151.342L331.019 152.282L342.302 142.222L362.329 138.649L398.716 142.974L396.459 129.247L397.493 112.229L416.862 100.852L424.478 90.0394L427.862 80.4491L426.264 76.2181L417.802 69.6365L418.272 63.3369L429.461 48.3873L452.779 43.4041L455.223 41.3356L454.377 30.335L470.549 25.6339L483.524 1.56411L584.974 1L605.189 11.6245L609.42 16.2316L616.942 34.19L629.447 46.1309L653.329 55.345L665.082 86.0905L669.407 88.0649L678.621 86.8425L684.45 88.7231L690.844 115.801L721.307 129.717L727.701 127.93L732.778 111.571L750.83 101.416L763.899 104.049L767.284 107.622L766.908 114.203L780.071 123.323L785.712 134.982L778.567 148.333L766.438 195.251L767.002 198.541L774.336 202.96L776.78 208.696L778.191 221.765L785.995 243.108L777.156 258.81L780.729 276.956L771.327 310.052L771.045 317.574L773.584 334.122L787.687 359.978L779.225 444.598L940.568 445.069L938.311 450.334L949.782 460.77L982.69 459.924L993.126 460.958L1003.19 465.001L1016.44 498.755L1014.85 505.807L1001.68 522.261L988.895 532.416L987.579 544.827L991.622 575.384L997.075 580.179L1005.54 579.897L1019.92 611.3L1019.55 630.575L1025 644.585L1024.34 660.662L1019.08 681.724L1003.47 700.622L998.58 721.777L993.126 729.675L989.083 733.53L973.664 738.513L964.92 748.668L951.474 784.208L946.585 807.243L907.942 831.407L894.121 844.853L887.163 844.477L862.811 829.903L850.87 816.458L784.302 825.484L771.891 821.441L769.541 818.62L737.761 824.826L733.248 823.322L728.359 810.628L709.46 796.901Z" fill="#CCCCCC" stroke="white" stroke-width="0.5"/>
</svg>
