<svg width="1026" height="835" viewBox="0 0 1026 835" fill="none" xmlns="http://www.w3.org/2000/svg">
<path d="M993.149 355.36L987.801 352.128L972.874 347.368L963.589 347.838L957.243 349.718L952.306 353.303L939.495 355.007L931.621 354.243L941.435 367.583L941.317 372.343L934.676 371.697L928.506 367.348L926.684 367.466L913.932 375.164L907.056 386.506L908.82 390.62L916.635 394.557L919.691 398.436L919.515 409.719L917.752 418.769L918.986 421.178L926.684 423.235L927.683 433.343L925.803 435.811L920.22 437.221L914.52 437.045L909.818 434.988L901.121 435.517L898.594 438.749L901.474 442.922L905.94 444.567L908.584 442.863L911.64 443.392L918.104 450.855L925.568 467.368L927.272 481.648L924.099 499.102L914.049 511.384L906.763 516.438L905.235 519.024L903.824 529.131L898.653 542.589L892.13 550.052L886.429 569.092L883.197 570.973L852.933 570.797L842.825 582.902L841.885 585.371L845.352 603.706L842.002 611.345L839.417 625.097L841.121 625.919L826.253 639.729L818.966 641.316L815.675 644.254L820.024 648.368L806.155 683.921L794.989 705.724L794.46 710.131L802.923 710.895L804.627 714.48L803.393 717.536L788.525 723.295L732.639 749.916L724.587 751.091L724.705 748.388L721.825 747.389L706.958 745.802L703.608 746.155L694.088 751.679L686.742 752.619L667.937 753.089L665.821 751.209L662.824 751.679L638.73 762.139L632.56 766.664L622.511 771.189L619.572 769.544L604.352 770.543L587.251 778.417L573.03 782.766L569.033 785.646L561.688 789.936L548.759 791.228L537.417 797.223L530.189 804.51L519.67 808.447L505.684 809.916L491.932 809.446L491.874 806.566L493.93 803.687L493.401 801.63L486.408 803.569L485.351 817.086L486.761 818.437L486.467 823.374L482.06 829.133L474.42 831.013L471.07 828.486L449.856 834.363L448.739 831.248L436.927 832.658L430.345 831.189L418.416 811.738L425.585 807.565L422.529 797.516L411.952 792.639L401.432 785.411L397.26 775.949L400.375 766.782L401.491 746.507L399.963 729.23L410.894 713.246L415.007 700.435L415.301 692.971L413.95 690.797L392.206 683.04L386.33 683.334L384.684 685.449L380.1 687.271L370.639 687.565L370.815 682.57L365.938 670.875L358.298 660.356L356.124 647.369L354.302 643.725L349.659 639.377L350.776 627.976L359.708 616.047L360.061 612.756L357.71 603.647L346.662 596.536L343.254 592.951L344.958 579.024L348.308 573.089L347.133 566.977L327.916 547.29L320.276 548.994L315.281 552.755L305.585 548.172L291.599 548.818L289.777 552.403L290.952 555.106L288.366 560.924L272.029 564.92L265.506 562.393L256.633 553.872L250.697 561.218L202.627 565.214L199.923 568.035L197.103 575.028L198.689 589.954L196.28 592.54L189.287 589.484L189.228 573.147L187.759 567.506L185.643 565.214L182.352 564.92L180.824 566.037L178.415 572.677L174.478 578.201L171.304 580.082L167.661 579.964L160.55 567.623L158.611 559.278L159.433 553.931L149.561 549.288L136.75 540.943L125.055 544.411L115.535 543.118L105.721 545.175L80.5106 539.533L65.5251 539.063L55.3587 529.954L50.9512 529.131L42.1363 532.716L33.7326 542.648L22.4496 544.822L9.81492 551.345L2.64545 557.986L4.46718 542.589L1 523.725L6.81779 499.161L10.2261 497.691L15.2801 500.395L17.3956 499.043L17.4545 497.045L14.1636 493.46L17.5133 482.295L27.1508 469.954L32.6749 465.605L35.3194 464.783L40.2557 465.723L45.0746 464.077L50.0109 456.438L49.6584 450.561L56.769 436.105L65.0551 423.764L78.1598 420.59L92.7339 414.949L114.536 418.592L133.282 408.955L142.215 410.718L149.913 419.062H151.853L168.954 401.903L193.224 386.388L205.036 391.619L227.72 390.678L236.417 392.324L246.701 392.265L250.11 391.736L253.342 388.915L278.905 399.846L283.019 404.371L311.755 388.269L314.576 381.687L319.63 376.398L326.447 375.223L344.606 363.117L337.613 342.784L340.609 331.677L344.899 326.388L345.898 322.216L344.841 316.339L342.079 312.754L332.794 309.405L327.505 312.167L321.099 305.644L323.626 293.068L342.666 275.379L356.3 259.454V255.928L346.604 229.13L338.259 223.077L333.264 221.079L328.269 213.968L330.678 205.33L336.79 197.984L340.786 188.64L338.964 179.414L342.079 170.482L349.542 169.776L362.999 160.903L382.745 155.614L385.859 152.499L381.805 127.465L378.69 126.348L376.222 122.763L375.987 111.598L380.277 107.484L383.626 101.96L380.747 95.1433L376.516 94.5558L380.747 75.868L382.921 74.2226L389.797 72.8711L406.134 79.5703L408.484 78.8063L411.834 75.6331L408.426 53.4781L415.301 44.722L429.523 53.4195L434.812 63.7622L453.793 65.7602L459.67 59.825L462.667 73.9876L454.263 94.2032L456.614 95.5547L464.489 90.207L468.602 84.3304L472.833 83.5664L485.351 85.7995L491.462 81.2746L502.334 66.1716L508.152 67.0531L516.555 63.9385L527.192 54.8298L532.775 47.9541L544.646 45.5447L564.45 34.6142L568.211 28.0913L593.304 10.285L615.753 1L626.33 1.52887L633.382 4.46718L646.193 4.64347L659.592 7.75807L664.587 10.4614L657.006 26.5633L656.125 31.7934L657.653 40.5497L661.238 43.488L692.56 52.0678L696.321 51.0687L701.081 44.4869L712.129 39.2568L722.531 37.7288L738.574 42.1363L745.038 45.3097L770.601 66.7005L776.36 65.6428L789.113 75.1629L803.981 82.3323L809.446 83.6252L812.443 82.3912L821.434 89.6781L847.233 82.45L849.466 83.5077L887.781 119.943L890.367 143.214L893.716 141.98L909.054 144.624L917.693 141.686L925.45 135.868L937.145 136.75L953.188 140.041L966.469 146.387L979.339 149.972L991.797 149.796L1008.43 164.311L1012.72 166.544L1017.95 166.956L1022.53 172.95L1025 179.825L1016.36 197.925L987.213 222.725L986.332 238.298L989.623 244.292V246.76L983.629 250.932L969.055 249.522L964.236 254.694L959.417 274.086L956.302 299.943L957.595 301.413L959.652 300.296L960.827 297.652L964.589 296.241L967.997 303.469L966.704 312.343L967.586 315.34L991.915 333.323L995.029 339.434L995.088 342.549L991.092 350.482L993.149 355.36Z" fill="black" stroke="white" stroke-width="0.5"/>
</svg>
