<svg width="937" height="1026" viewBox="0 0 937 1026" fill="none" xmlns="http://www.w3.org/2000/svg">
<path d="M651.969 987.841L649.61 982.402L654.066 973.554L654.001 970.081L650.527 963.265L623.461 943.277L622.478 939.934L623.919 930.038L620.184 921.977L615.924 923.55L614.613 926.499L612.385 927.679L610.943 926.041L614.417 897.205L619.791 875.578L625.165 869.811L641.352 871.384L648.037 866.731V863.978L644.367 857.293L645.415 839.926L677.921 812.27L687.555 792.085L684.803 784.417L679.691 777.733L673.858 777.339L669.074 774.849L650.527 758.662L636.633 758.793L622.281 754.861L607.405 747.783L589.513 744.113L576.537 743.195L567.886 749.683L558.253 752.96L541.148 750.011L537.412 751.387L534.528 725.435L491.799 684.803L489.309 683.623L460.538 691.684L450.511 683.557L447.169 684.934L441.074 683.492L424.428 675.497L410.207 664.88L403.784 666.059L375.276 642.27L368.067 638.731L350.176 633.816L338.576 635.454L326.255 641.352L320.947 648.692L316.752 649.872L281.822 640.238L277.824 637.027L276.12 627.196L277.038 621.364L285.492 603.407L279.856 600.392L264.913 596.984L250.627 596.722L242.762 593.445L231.031 592.921L205.931 603.276L178.013 623.133L173.818 630.408L151.733 642.663L138.494 645.284L132.269 653.018L120.407 663.176L111.035 666.584L104.481 665.601L92.357 682.509L85.5414 687.555L71.5822 685.065L66.8636 685.917L62.3416 692.47L53.5598 698.5L50.9384 696.927L60.31 674.448L56.9676 658.654L66.667 645.743L68.3054 640.697L66.798 632.374L62.4072 621.102L63.0626 616.711L67.7156 607.405L67.3878 604.39L46.3508 587.22L35.2752 564.544L31.212 541.475L31.5396 531.317L39.404 506.217L49.8242 499.467L51.3316 496.976L51.7248 490.816L41.0424 485.311L40.3216 483.148L43.4672 466.633L52.8388 459.686L52.7078 457.262L34.882 441.14L34.6198 435.045L43.5328 419.447L43.2706 412.435L42.1566 409.682L32.5882 406.471L26.4278 402.211L24.1342 393.954L24.5274 374.817L25.7726 369.247L38.552 358.302L46.0232 355.55L52.3146 350.831L50.414 346.702L46.613 343.295L40.5836 341.394L33.8334 342.574L31.5396 340.411L30.9498 337.134L33.7024 330.843L47.0718 325.469L50.7418 322.52L50.4796 317.539L38.1588 311.116L14.697 306.725L2.5072 293.88L1 287.851L4.2768 280.249L10.8958 275.465L20.8574 252.658L26.7556 248.66L33.3746 246.891L35.6684 244.401L27.2144 232.604L28.4594 230.179L49.4966 213.009L74.5314 199.771L78.2014 196.69L79.6432 190.268L84.165 186.008L99.435 185.877L108.872 194.659L113.198 201.475L116.671 215.958L128.205 232.276L155.599 244.466L167.396 241.058L181.224 242.238L183.387 240.862L188.302 231.359L195.773 228.934L200.164 223.233L207.832 217.4L222.315 212.485L231.031 213.599L240.731 217.072L249.578 214.32L269.042 198.46L288.375 165.364L293.094 159.728L294.667 153.699L296.633 136.922L295.846 129.319L281.166 100.287L281.494 94.1922L302.728 83.3788L315.507 83.2477L325.338 86.2623L328.025 92.3572L330.122 93.5368L344.015 90.7188L353.125 87.1798L361.841 89.6702L373.048 96.1583L372.196 100.418L373.441 102.319L378.815 104.154L398.476 103.433L408.11 99.2385L419.251 98.5831L424.625 90.5877L434.521 81.8059L452.412 79.5777L457.458 77.2184L462.767 70.7958L476.988 70.8614L481.051 74.9901L483.083 75.3178L495.272 63.4558L494.617 47.7272L507.659 45.2368L512.836 46.4164L519.717 42.0911L529.548 26.9523L532.562 19.4156L538.395 22.0371L545.997 20.2676L560.415 22.1681L578.896 31.2776L581.78 34.62L581.387 52.5113L586.105 65.2253L600.589 71.1891L602.358 84.2963L596.329 95.3063L608.322 99.3695L614.613 97.9277L619.987 91.8984L638.796 86.1313L643.843 62.6694L647.119 56.9677L652.035 55.9192L657.146 59.3926L661.275 59.7203L676.938 53.0356L684.147 44.9091L685.261 41.0425L683.623 32.1296L685.523 30.4912L700.203 27.5421L705.25 14.1072L716.063 11.2236L732.644 1.6554L736.511 1L746.275 4.67L751.715 14.1072L760.628 19.4156L776.094 24.5274L795.689 27.1489L806.044 34.6855L809.583 45.4989L812.139 47.2684L814.957 46.2854L816.857 34.8166L819.676 31.933L826.229 31.8675L829.178 33.9646L829.309 38.0934L825.246 43.8605L828.195 49.3L831.472 51.7249L845.235 57.361L845.366 63.5213L853.361 83.5098L856.9 92.6849L863.585 94.5854L866.534 93.9956L875.905 99.1729L877.216 103.891L872.825 111.494L874.201 125.518L882.59 141.902L895.632 154.682L900.547 162.219L900.023 182.666L895.697 193.283L895.107 199.05L900.088 217.072L898.122 220.873L893.6 224.478L876.889 231.031L869.483 226.116L858.276 226.051L856.179 228.017L852.313 238.371L852.444 243.418L858.669 253.903L865.879 258.229L869.286 267.994L878.658 277.89L879.641 280.446L878.789 289.752L876.561 292.308L877.347 295.06L881.214 298.468L893.862 304.497L897.008 309.15L900.547 311.378L910.705 315.573L929.645 309.806L933.839 309.675L936.199 312.362L909.46 370.23L884.36 404.243L877.609 419.513L844.645 457.131L828.589 465.388L822.887 465.323L824.853 455.951L827.278 454.968L828.195 447.759L825.246 435.11L812.991 433.472L810.173 424.952L805.717 420.037L803.292 423.969L800.277 439.239L797 444.941L793.396 447.431L789.726 445.531L786.515 434.127L787.235 432.03L789.267 431.178L789.07 428.622L783.369 437.077L789.463 448.152L792.478 449.659L794.903 448.676L802.44 450.38L799.425 462.242L791.495 469.779L789.857 481.707L781.665 488.064L779.371 492.454L778.06 497.959L779.24 503.53L770.393 500.974L769.016 503.53L766.657 520.045L769.016 515.327L773.931 516.703L775.504 520.242L773.997 522.929L774.39 526.992L776.356 528.958L778.519 535.512L771.703 551.961L775.439 574.506L771.834 577.717L768.099 576.275L767.181 583.681L771.048 586.695L778.978 575.423L775.897 560.94L781.271 556.942L782.91 560.481L782.517 572.015L776.225 589.12L771.375 624.706L768.033 636.568L769.344 652.756L774.456 671.433L775.701 701.187L781.403 743.195L787.891 765.609L773.407 809.255L764.56 852.837L761.48 859.456L760.431 878.199L753.484 902.579L752.895 917.849L755.45 946.816L761.283 958.022L746.603 977.552L734.741 981.943L728.581 986.137L710.755 1011.63L707.019 1025L654.001 991.314L651.969 987.841ZM797.983 476.66L796.476 468.796L801.325 466.109L808.272 459.293L809.321 455.099L806.896 450.315L811.877 451.232L817.251 458.114L816.923 461.587L797.983 476.66ZM781.403 521.552L777.274 521.356L777.339 516.965L779.043 514.606L773.801 513.164L771.048 510.542L771.9 503.53L784.155 502.547L785.204 503.858L785.925 511.263L781.403 521.552Z" fill="#CCCCCC" stroke="white" stroke-width="0.5"/>
</svg>
