<svg width="1026" height="720" viewBox="0 0 1026 720" fill="none" xmlns="http://www.w3.org/2000/svg">
<path d="M946.378 592.024L893.762 591.723L890.448 596.141L872.977 598.551L865.345 597.848L864.241 593.932L848.476 599.655L834.92 614.014L801.282 635.402L786.823 633.795L774.473 627.57L743.044 601.463L732.701 597.547L725.07 597.446L696.553 604.777L673.157 606.483L665.024 606.182L650.765 598.551L639.62 599.957L624.257 606.483L618.332 621.244L611.002 629.98L592.225 639.82L556.378 635.703L536.296 647.251L529.066 654.983L522.138 670.948L530.673 700.971L521.937 709.606L512.699 709.807L505.168 713.623L503.461 718.543L490.106 699.565L447.431 700.871L409.676 696.553L393.811 684.704L392.205 680.587L381.862 674.261L339.087 670.647L285.969 653.777L262.473 659.501L235.462 659.2L215.178 645.042L211.965 639.921L201.321 637.511L196 637.41L188.871 641.126L152.421 640.925L150.212 628.775L124.808 586.803L125.009 560.796L115.068 531.877L80.727 508.08L69.7822 519.426L48.4946 518.322L37.4496 522.639L26.7054 531.677L12.0454 520.832L3.81152 521.435L1 499.344L7.62722 483.579L18.3711 470.827L30.6213 448.937L31.2238 445.523L26.3037 437.992L26.5047 425.541L35.5417 388.991L48.1934 358.667L45.6831 335.572L58.5358 311.674L56.4272 301.432L47.9927 292.596L44.8799 276.53L51.5072 265.887L59.4398 260.464L83.3375 244.8L86.9525 236.566L102.717 157.04L106.031 153.526L117.177 150.312L133.845 140.171L140.572 133.343L155.132 97.5962L154.931 86.0489L164.269 62.6527L175.415 54.4189L229.738 31.6255L262.473 8.63109L300.93 15.1581L341.195 14.0534L374.03 16.9654L386.18 10.74L389.694 4.71519L397.024 1L408.772 3.91172L423.633 11.7438L448.937 16.363L475.446 27.3079L488.6 28.6133L499.344 23.1909L525.25 23.0904L533.082 33.1316L550.654 41.5662L585.899 49.5993L592.225 54.7204L599.354 67.9745L616.726 68.6775L620.943 65.2635L637.511 66.7696L644.138 72.192L697.457 73.4974L727.279 64.9623L738.625 80.526L774.673 108.943L783.61 126.615L783.71 154.128L779.794 159.952L778.188 168.085L782.003 186.561L795.057 201.723L794.254 219.396L790.639 225.019L805.6 255.142L817.75 266.69L824.477 269.501L829.498 276.329L828.996 285.266L838.234 305.047L844.259 307.959L846.769 312.377L844.259 322.92L831.506 344.308L834.72 364.792L840.744 368.608L850.886 370.716L874.784 369.511L909.125 364.19L914.146 368.106L930.01 366.198L945.976 367.503L962.142 380.155L960.736 384.272L951.8 390.799L944.872 423.935L948.386 431.767L959.13 437.089L965.657 428.554L976.702 400.84L984.333 399.133L1005.82 404.957L1001.8 424.537L1009.14 457.673L1023.39 463.497L1025 476.751L1011.44 486.993L1005.32 501.854L999.797 500.649L1002.51 481.169L1016.97 471.63L1002.81 474.442L993.873 479.362L985.136 479.161L981.722 475.245L975.999 473.538L970.577 477.253L967.765 486.592L972.987 494.625L965.657 504.264L962.644 505.268L937.742 499.947L929.81 494.524L925.291 495.729L923.484 504.766L926.898 508.481L943.064 514.105L957.122 511.594L978.51 517.619L981.221 522.439L971.481 529.267L956.017 557.181L943.566 564.913L919.266 570.636L917.258 575.155L946.88 573.147L948.386 585.096L946.378 592.024Z" fill="#CCCCCC" stroke="white" stroke-width="0.5"/>
</svg>
