<svg width="1026" height="349" viewBox="0 0 1026 349" fill="none" xmlns="http://www.w3.org/2000/svg">
<path d="M489.88 323.69L477.695 293.329L477.595 283.941L456.522 275.352L451.528 271.656L447.034 263.367L453.126 254.478L452.927 248.286L448.432 245.09L438.445 245.19L434.15 249.584L431.254 266.962L426.959 268.46L423.065 265.864L417.671 249.385L401.891 237.899L372.029 233.904L348.459 226.214L334.976 218.124L326.687 203.742L311.806 198.15L305.913 199.248L280.645 213.83L264.166 218.224L256.476 238.698L234.204 243.193L231.308 245.689L233.805 259.272L232.106 265.165L221.121 277.549L197.251 287.836L190.859 287.237L183.169 281.943L175.578 283.641L170.585 292.33L162.894 327.985L134.231 336.774L126.041 345.962L116.454 348.259L98.0768 342.067L107.265 325.288L104.669 305.314L82.5965 296.225L75.406 276.85L76.0052 249.584L71.6107 244.491L43.5464 230.708L21.5742 227.812L9.98883 230.409L1 226.414L27.167 213.73L46.8418 196.652L52.2353 187.963L75.1061 174.68L84.7935 171.883L123.644 133.232L131.035 115.654L131.634 92.9831L128.738 87.5901L112.559 71.8101L113.258 49.9378L107.265 38.6521L106.666 29.1642L107.765 24.6699L112.958 21.3741L130.835 19.7761L180.073 21.7736L188.962 24.1705L205.241 22.2729L226.614 14.2832L239.498 13.2844L270.258 17.479L298.722 36.4549L316.999 44.7444L321.593 54.6319L331.68 65.3184L345.263 70.1122L353.053 75.8049L359.345 92.1841L375.824 91.6849L391.205 68.8138L401.891 60.5243L417.771 55.6307L421.766 56.5295L435.748 75.6053L445.635 78.901L460.716 75.7051L470.005 68.4144L473.8 69.2134L480.092 81.5976L479.593 88.3891L487.283 91.6849L513.55 81.9972L529.829 79.7L545.009 63.3208L571.975 44.5447L582.462 41.4485L597.243 32.7596L606.532 17.6788L628.703 5.09469L643.484 1L678.44 20.1756L683.434 34.058L682.335 37.0542L652.373 47.7406L648.678 55.5307L649.077 60.2247L656.268 78.901L654.571 83.1956L629.302 109.562L628.903 114.056L643.984 111.56L648.379 108.663L659.764 111.859L661.561 114.855L659.164 119.749L662.66 142.121L672.148 151.509L688.128 159.399L704.607 151.009L717.99 149.412L735.768 134.131L739.762 129.337L739.662 123.944L735.768 116.653L741.161 109.063L750.049 102.171L768.226 101.173L773.719 94.7809L789.799 85.992L828.55 88.5887L850.322 85.6924L858.312 80.3992V74.4067L869.697 74.6065L889.772 70.1122L908.747 59.8253L913.242 41.8481L928.024 29.0643L951.094 18.3778L977.56 20.4752L985.75 23.0719L1010.72 43.6458L1019.51 45.9429L1025 58.1275L1012.32 75.3057L1011.22 80.7986L1011.32 85.5926L1018.31 89.2879L1021.01 94.2815L1022.9 104.868L1003.33 168.587L970.869 257.974L968.172 255.876L939.209 253.18L920.033 245.09L905.352 246.988L879.785 259.871L857.413 251.382L837.438 253.779L821.958 266.163L820.759 270.658L798.987 293.529L780.91 304.614L769.325 304.115L750.749 314.702L739.063 315.8L707.703 312.904L682.735 319.396L663.659 314.602L645.882 304.115L626.906 282.942L601.438 262.768L590.652 263.966L573.973 260.97L563.986 248.785L555.796 254.778L554.897 261.669L531.127 294.527L509.455 302.118L503.063 313.004L489.88 323.69Z" fill="black" stroke="white" stroke-width="0.5"/>
</svg>
