<svg width="908" height="1026" viewBox="0 0 908 1026" fill="none" xmlns="http://www.w3.org/2000/svg">
<path d="M533.813 1020.08L522.655 1019.37L513.515 1023.41L498.085 1024.83L464.968 1016.76L447.757 1004.53L442.653 986.728L420.457 970.229L419.151 954.799L421.644 946.609L417.964 927.854L414.047 922.276L402.771 920.02L397.904 908.863L398.854 880.02L364.076 841.087L354.817 845.36L345.084 843.105L327.279 801.798L328.823 783.044L321.819 761.56L314.46 754.913L306.507 736.99L304.253 711.944L309.356 674.674L307.338 670.756L276.833 662.092L252.856 635.266L243.835 601.675L246.091 593.129L254.162 590.399L248.346 576.392L240.275 576.748L206.565 545.175L195.407 546.837L190.897 551.822L175.11 553.484L165.139 550.279L155.643 538.647L142.112 528.676L127.987 527.252L122.171 512.059L114.218 502.563L91.3099 490.1L75.9978 484.283L35.7593 479.892L22.9402 483.334L9.05248 483.096L5.3729 476.687L2.52428 459.594L5.49171 405.706L12.8509 390.275L8.45914 362.975L1.09998 356.209L5.25445 353.717L17.0053 357.277L16.8865 366.892L13.4446 369.028L17.4802 380.542L34.9287 379.83L44.6616 382.56L48.8161 393.243L58.7866 401.67L85.4935 410.929L124.545 419.831L157.305 398.703L161.46 389.682L181.994 375.794L191.846 372.352L200.036 383.51L232.203 394.667L245.022 393.243L265.438 381.254L266.863 376.269L270.661 376.625L287.991 392.056L285.617 402.382L313.748 400.365L319.802 406.299L331.078 408.317L338.437 408.199L349.238 402.501L369.061 384.696L390.189 371.64L410.961 344.339L415.353 332.47L412.979 326.06L450.131 248.907L451.437 227.304L464.612 211.874L473.277 209.618L516.008 140.893L518.738 127.242L528.708 112.999L549.955 94.6007L557.433 74.897L582.478 61.3656L588.057 50.4454L600.402 43.561L607.049 60.8908L617.494 77.0336L597.671 20.0589L596.841 4.74702L598.977 0.830017L638.978 29.5547L652.51 43.9171L663.311 58.3981L669.483 72.5231L669.839 91.2772L675.062 94.9568L678.861 89.2594L683.371 88.0724L685.864 92.8203L688.356 186.472L696.19 232.408L728.357 304.22L759.931 410.335L799.338 469.684L811.326 473.838L850.14 472.888L883.138 484.046L898.45 494.135L907.59 525.59L905.691 565.116L890.379 576.511L869.844 581.615L865.334 585.532L886.581 583.752L898.925 578.766L902.248 581.496L903.673 588.499L901.655 597.164L841.95 645.355L828.063 670.282L802.543 687.018L779.516 731.173L744.975 772.717L736.666 778.177L725.508 777.109L708.297 783.281L683.608 818.653L667.703 819.484L658.801 830.167L641.352 850.108L629.839 876.459L616.545 898.655L606.574 906.37L570.846 947.321L566.573 975.808L568.591 997.174L545.445 1018.66L533.813 1020.08ZM811.089 462.324L805.748 458.407L792.691 436.33L793.522 425.884L796.252 421.018L815.956 415.676L821.06 420.306L830.912 447.25L819.16 460.307L811.089 462.324ZM840.644 671.35L835.897 668.383L834.947 659.955L848.122 646.898L858.568 645.118L873.405 647.967L878.865 646.661L884.088 639.064L884.681 646.068L873.168 663.16L861.416 669.095L840.644 671.35ZM881.476 637.284L872.218 634.554V627.907L880.764 615.562L895.601 614.375L897.738 618.53L896.551 624.583L881.476 637.284ZM796.133 418.644L787.112 412.709L790.198 402.857L800.644 400.839L810.852 404.638L810.97 413.303L796.133 418.644Z" fill="#CCCCCC" stroke="white" stroke-width="0.5"/>
</svg>
