<svg width="702" height="1026" viewBox="0 0 702 1026" fill="none" xmlns="http://www.w3.org/2000/svg">
<path d="M551.405 18.2481L561.963 19.2152L567.525 17.3615L585.579 21.4719L593.558 28.3228L596.137 33.1587L595.25 39.6065L586.465 54.5172L573.731 70.3951L572.28 82.1624L574.617 92.5596L589.125 130.602L614.514 182.346L618.059 196.289L629.021 209.105L628.86 215.23L622.896 226.191L629.263 257.383L625.394 270.278L633.454 286.479L638.29 310.578L633.535 323.312L627.087 327.987L634.502 333.548L635.388 336.611L642.964 402.379L641.03 406.006L647.156 426.72L655.618 468.631L663.759 490.15L674.317 495.389L694.95 499.177L701.157 508.527L701.076 514.088L688.986 532.223L679.798 557.289L680.443 565.107L685.923 570.587L685.44 581.226L671.012 582.516L666.822 585.176L665.935 588.803L666.418 596.459L671.255 605.567L670.69 623.218L683.747 635.953L686.084 640.305L685.601 658.601L679.637 672.786L648.284 703.977L640.466 706.234L622.009 716.954L617.657 723.966L601.779 737.748L580.662 747.984L577.035 757.333L564.945 775.871L556.483 781.271L550.115 779.82L533.996 782.883L534.882 802.227L519.891 816.734L517.312 816.331L512.315 811.334L494.906 811.254L488.297 819.152L482.091 822.054L460.087 824.794L447.917 835.594L441.308 845.427L427.606 846.233L415.678 851.391L391.498 852.278L384.889 850.021L383.358 847.765L384.406 842.445L370.623 834.546L359.904 831.403L348.7 835.836L331.533 839.302L328.954 837.851L325.649 830.355L313.56 826.648L297.843 826.809L271.729 840.108L271.246 847.603L289.3 883.389L290.267 892.658L287.93 913.371L285.915 920.706L280.112 927.637L256.335 968.339L232.397 987.844L221.517 991.229L209.588 986.958L198.788 985.587L181.056 991.632L171.626 998.806L166.226 1005.82L157.038 1008.88L150.993 1020.57L148.333 1022.26L131.327 1020.81L116.82 1025L83.1296 1010.09L68.8635 990.02L64.5918 972.208L59.2726 963.826L47.6664 953.026L28.8869 953.187L5.19102 951.494L5.59416 936.02L7.68954 927.476L16.9585 907.73L18.0061 856.469L24.1316 845.185L24.3734 841.075L10.4298 816.412L6.64173 790.701L1 775.065L6.88376 758.945L20.5853 747.662L30.2572 727.673L31.305 715.503L34.0453 708.813L36.4632 707.121L48.0693 685.037L53.147 666.338L56.2902 642.4L64.1889 618.382L81.3564 602.665L103.279 596.54L124.315 594.042L132.939 591.059L146.641 578.728L155.104 578.405L165.904 574.214L188.955 553.501L207.815 546.166L224.015 530.047L229.093 523.034V519.327L244.406 503.852L248.436 502.079L255.207 500.145L257.06 502.563L266.087 500.467L274.147 495.631L285.915 494.1L294.055 495.792L314.285 510.461L326.456 509.655L346.121 502.724L352.811 502.401L358.05 504.658L376.426 502.321L386.179 491.762L390.209 479.995L391.176 470.243L393.513 466.696L396.656 448.965L395.609 442.114L394.239 438.084L381.262 430.75L366.916 414.388L362.805 395.85L361.919 378.844L363.289 358.856L396.334 323.151L398.027 318.718L398.833 299.133L394.4 275.114L381.665 252.547L390.853 229.415L393.11 217.567L390.047 207.331L380.134 200.561L377.313 185.086L383.519 176.623L388.677 175.253L395.286 159.295L410.519 144.384L417.612 129.635L417.29 115.208L440.824 87.7237L447.353 89.0133L474.031 85.3057L507.318 53.3082L521.745 35.0125L524.888 22.6809L519.73 18.4092L517.957 12.6062L521.664 1L527.548 1.9672L539.396 8.97926L543.506 13.0897L542.459 15.5883L551.405 18.2481Z" fill="black" stroke="white" stroke-width="0.5"/>
</svg>
