<svg width="1026" height="983" viewBox="0 0 1026 983" fill="none" xmlns="http://www.w3.org/2000/svg">
<path d="M79.2771 577.933L87.7503 569.69L111.441 554.876L114.438 540.754L122.681 518.966L128.042 512.741L137.495 509.686L139.973 507.322L143.317 502.48L146.314 489.511L155.882 477.925L159.11 465.013L159.514 455.157L156.171 446.568L156.401 434.752L147.582 415.499L142.394 415.672L139.051 412.733L136.573 393.999L137.38 386.391L145.219 380.165L153.289 370.078L154.269 365.755L146.141 345.062L139.973 342.583L133.575 341.949L113.401 342.468L106.369 336.07L107.752 332.842L8.83924 332.553L14.0269 280.676L5.38072 264.825L3.82437 254.68L3.99729 250.069L9.76143 229.779L7.57112 218.654L12.9894 209.028L8.20518 195.943L7.3405 187.931L5.84186 184.415L1.34583 181.706L1 179.688L8.43571 150.925L12.8164 142.74L9.35799 135.593L1.28814 130.001L277.102 128.157L284.077 123.949L290.879 93.8603L298.833 69.5357L296.182 58.3532L292.377 50.4563L291.801 45.5568L294.222 40.6572L299.179 36.9682L306.096 26.4775L307.652 20.6557L305.693 15.8138L306.038 11.4331L307.191 7.91695L313.993 1L320.737 7.2252L334.859 30.6277L337.165 40.7726L345.062 63.5986L352.67 74.7234L357.109 84.0612L355.783 98.1258L358.55 111.96L362.758 124.641L371.577 131.039L388.869 146.89L408.352 156.689L409.678 162.108L409.447 168.448L410.773 171.273L416.249 173.578L420.975 172.598L430.371 175.192L433.484 179.343L434.636 185.568L436.654 187.412L444.551 184.819L465.82 193.407L662.032 207.356L1025 227.416L1021.25 233.295L1018.03 244.189L1011.68 251.394L1009.15 269.494L1006.67 274.393L1004.54 275.95L993.355 306.442L990.242 323.561L990.012 340.566L979.175 375.093L979.521 380.05L987.533 387.774L986.611 392.789L981.884 397.919L981.596 400.801L987.937 413.77L985.227 432.85L985.285 441.899L988.282 445.242L990.819 462.823L986.553 478.732L992.202 497.984L997.736 500.924L1002.35 501.039L1002.81 504.671L1001.25 511.184L995.661 516.141L993.643 521.329L994.565 537.008L992.317 543.175L980.789 561.448L974.852 576.607L967.877 581.103L968.569 610.962L959.346 628.773L956.003 644.566L958.77 651.138L958.828 655.749L952.084 672.292L947.242 689.181L939.229 697.424L932.255 701.632L925.165 697.712L918.997 699.211L909.486 705.032L898.419 716.215L896.229 720.48L892.54 744.113L888.447 749.647L877.034 773.799L875.19 775.413L859.511 780.37L844.237 781.119L836.167 796.221L826.079 801.812L825.618 810.689L820.892 818.932L813.514 824.927L810.631 830.748L808.729 841.988L801.524 853.632L790.457 863.834L778.813 868.676L774.778 873.115L772.588 889.889L757.89 912.08L755.584 931.736L756.506 935.829L764.634 948.452L765.671 968.223L771.147 980.904L762.213 982.691L755.469 979.406L750.454 978.944L735.121 979.406L731.836 982.691L705.205 981.135L695.176 973.814L687.682 973.18L686.818 970.125L687.913 967.474L697.481 951.161L707.857 947.126L714.947 909.025L707.223 909.775L674.828 944.417L669.006 944.071L656.729 949.144L651.022 948.913L649.639 947.472L647.91 939.575L638.745 933.581L624.68 933.177L616.437 936.693L613.613 941.593L606.35 946.204L580.296 949.836L573.149 946.55L565.886 940.152L548.421 933.465L543.925 927.586L542.368 922.629L538.622 920.611L523.52 917.902L507.438 910.697L503.057 904.068L495.736 902.915L484.093 905.74L476.311 912.945L466.743 915.885L462.304 913.925L453.312 915.193L438.383 915.02L430.313 923.378L429.795 930.122L418.151 947.126L406.335 958.655L373.94 970.01L361.547 961.248L355.668 954.908L351.633 953.755L347.828 949.893L345.984 945.282L349.097 941.189L335.032 928.796L327.654 932.428L324.657 932.14L317.913 928.22L315.319 924.185L303.675 916.058L292.781 911.677L291.052 909.832L289.322 903.377L287.997 886.488L284.481 876.285L283.385 855.188L288.458 845.735L295.029 839.452L296.989 829.192L296.7 818.298L291.167 818.644L288.861 822.102L286.671 823.024L131.846 816.799L125.794 743.883L94.8402 708.548L122.969 708.203L120.952 664.683L105.734 634.018L102.91 622.663L104.409 616.553L107.925 613.383L111.672 606.004L103.371 589.115L85.4447 583.121L79.2771 577.933Z" fill="black" stroke="white" stroke-width="0.5"/>
</svg>
