<svg width="1026" height="680" viewBox="0 0 1026 680" fill="none" xmlns="http://www.w3.org/2000/svg">
<path d="M578.486 679.267L577.319 669.568L566.964 665.411L561.64 641.346L564.557 627.126L548.952 622.897L543.409 624.136L535.388 644.336L530.575 650.535L522.845 646.67L520.292 640.982L525.324 616.917L531.814 612.104L532.835 609.187L521.094 599.926L509.5 598.978L497.978 600.363L494.331 597.592L469.464 601.457L452.108 602.332L444.743 600.801L440.368 597.957L437.961 583.08L447.295 567.62L449.118 559.963L447.295 556.754L442.92 554.567L436.211 540.201L436.648 533.71L433.002 528.752L428.116 526.637L419.292 518.324L408.427 496.373L411.052 492.363L411.636 479.528L402.155 468.443L399.384 455.025L400.624 449.118L403.468 444.889L403.322 424.908L396.832 412.073L370.652 391.436L362.412 380.132L340.753 386.404L302.031 385.456L297.218 381.518L285.185 380.497L282.122 382.976L269.579 382.466L264.329 372.84L259.735 369.121L234.138 363.287L221.376 357.161L215.688 349.869L196.874 349.942L189.071 353.88L179.445 352.932L160.193 344.983L141.743 341.628L130.951 335.867L122.419 333.753L117.095 336.451L114.616 340.826L105.792 345.348L81.8728 343.233L52.6302 344.035L24.7003 339.295L1 355.994L7.1256 348.119L12.4489 336.888L21.6374 328.575L76.768 295.468L90.9883 281.831L100.177 264.11L112.793 251.786L115.709 242.962L126.211 235.451L128.252 226.554L125.7 220.429L140.285 203.948L149.109 186.883L149.619 180.029L147.358 165.954L149.036 163.11L156.036 159.318L174.997 132.774L176.164 111.407L180.685 99.1558L188.05 96.9681L193.374 92.3009L207.886 72.7573L216.782 65.3191L220.21 63.6418L229.763 63.35L240.701 57.6619L242.743 54.745L245.66 36.8058L254.557 28.5653L270.236 20.4706L284.237 17.7725L294.665 5.44826L305.604 1L311.073 2.02082L323.689 13.3242L342.285 13.9075L373.569 20.9084L385.747 18.283L397.561 19.8873L412.146 15.5848L428.043 25.9399L440.222 31.701L439.274 38.4101L441.68 48.7652L450.504 64.0063L455.098 64.2251L459.036 61.8917L463.922 55.0368L466.912 46.7963L468.808 45.4107L472.819 45.7753L475.444 48.6194L477.267 55.6201L477.34 75.893L486.091 79.7579L489.081 76.4765L487.112 57.9537L490.685 49.2757L493.967 45.7753L553.619 40.8895L560.984 31.774L571.923 42.4208L580.09 45.5565L600.363 40.5247L603.572 33.3053L602.113 29.9509L604.374 25.5024L621.73 24.7003L633.835 30.3884L640.034 25.7212L649.587 23.6065L673.36 48.0359L674.819 55.6201L670.662 62.9855L668.547 80.2685L672.777 84.7169L686.559 93.5407L689.476 104.844L689.039 108.928L677.954 123.731L676.642 137.878L682.403 143.275L684.663 147.723L687.362 163.839L696.842 176.966L702.894 191.478L702.675 197.676L714.416 197.312L720.104 195.051L722.146 192.426L729.439 192.061L756.421 201.687L758.098 204.385L757.733 213.647L752.628 229.544L739.065 249.379L740.961 270.819L739.575 295.978L735.71 307.354L740.961 319.022L753.941 328.065L767.141 334.117L770.859 346.66L762.036 351.765L776.766 375.903L785.007 377.726L799.665 375.976L800.977 379.841L827.376 372.548L831.459 375.611L841.012 373.277L846.482 366.131L846.846 360.005L845.096 358.255L846.336 341.483L855.014 339.076L855.67 341.628L853.118 345.202L853.191 348.702L870.255 349.286L887.684 347.462L900.737 342.576L909.707 333.534L923.781 326.096L939.898 324.491L948.94 319.168L958.202 323.106L962.285 331.638L971.255 343.233L984.162 346.077L1007.13 342.212L1019.53 342.285L1025 354.244L1012.97 369.923L1002.03 375.101L981.829 377.726L978.183 376.632L961.046 383.997L953.097 392.383L945.148 417.907L945.513 420.897L957.399 433.513L960.9 435.409L960.462 436.867L948.138 439.93L940.408 433.95L929.615 442.045L926.479 446.785L928.449 448.389L922.906 453.056L899.425 464.36L883.017 469.464L880.975 472.673L881.267 479.674L884.913 490.977L882.579 494.04L872.37 495.936L867.265 491.269L857.493 489.154L834.741 485.508L828.469 486.602L818.844 489.081L806.228 495.061L802.582 498.78L793.758 514.459L784.205 518.615L780.559 517.74L784.788 514.313L781.288 505.416L772.756 499.217L766.703 508.187L768.599 513.656L766.411 518.105L710.843 549.025L703.915 555.004L701.655 563.464L677.809 585.341L654.108 599.561L640.107 603.426L607.291 626.835L590.3 641.128L585.414 641.711L582.205 646.232L588.768 649.368L593.581 649.806L600.363 647.18V652.723L595.842 662.276L586.216 668.474L578.486 679.267ZM901.613 511.469L890.382 506.729L881.923 508.041L878.35 505.27L879.079 499.582L886.007 494.842L893.955 481.351L899.206 483.174L904.019 487.914L904.967 509.135L901.613 511.469Z" fill="black" stroke="white" stroke-width="0.5"/>
</svg>
