<svg width="637" height="1026" viewBox="0 0 637 1026" fill="none" xmlns="http://www.w3.org/2000/svg">
<path d="M6.33157 872.411L1 869.837L9.08909 826.818L19.5682 802.919L8.72161 745.56L11.6631 737.838L43.284 699.967L137.962 700.518L148.074 694.636L165.906 635.071L186.313 611.723L202.491 569.623L206.903 538.002L211.683 529.913L234.479 514.103L265.916 475.68L275.843 421.079L270.512 376.406L247.164 324.745L226.942 301.398L217.382 299.743L209.109 305.075L195.137 299.927L186.129 286.874L194.034 276.763L221.243 275.108L235.95 281.543L253.783 282.095L271.247 277.682L277.13 269.961L274.005 238.34L249.922 231.905L246.061 224.368L251.576 196.056L252.128 160.759L242.568 148.625L218.118 136.307L212.602 123.439L234.112 87.9575L274.005 63.8742L279.704 63.5062L299.008 77.1103L319.782 79.1328L320.15 64.2417L289.449 22.5098L314.083 24.8992L354.16 19.5682L369.603 8.35357L389.458 2.47049L418.505 1L465.201 15.8912L481.931 26.0022L487.446 35.7458L636.358 130.241L619.26 191.828L613.561 244.407L615.768 310.406L629.004 423.469L623.305 468.878L595.913 527.34L545.356 552.893L535.245 563.924L504.543 625.144L486.527 695.003L472.37 722.028L457.112 709.527L440.934 707.137L435.602 730.669L460.421 740.228L424.756 818.178L361.33 888.773L356.918 883.809L322.724 895.943L308.016 918.555L306.913 944.109L299.192 967.089L269.96 1004.23L264.629 1025L234.847 1005.51L179.878 1012.31L100.091 993.747L54.1306 972.972L41.8129 886.383L6.33157 872.411Z" fill="black" stroke="white" stroke-width="0.5"/>
</svg>
