<svg width="1026" height="1026" viewBox="0 0 1026 1026" fill="none" xmlns="http://www.w3.org/2000/svg">
<path d="M549.213 1024.91L546.226 1025L530.132 1015.53L528.472 1011.61L532.787 975.186L528.97 938.934L530.215 929.807L535.441 919.231L559.003 898.93L565.888 885.623L584.969 863.787L572.857 849.713L563.98 844.424L545.314 839.307L526.067 820.115L516.028 806.296L515.199 792.734L511.631 782.669L501.427 765.354L484.337 746.246L478.778 741.214L458.95 730.893L446.921 732.684L431.158 719.804L418.548 705.901L408.177 699.248L407.016 684.747L391.253 666.322L363.71 662.399L356.077 658.39L341.725 644.231L327.124 645.34L309.121 633.568L293.275 601.923L284.066 589.214L263.077 571.13L257.27 571.813L251.711 587.081L230.224 606.188L208.073 607.211L208.903 582.816L212.221 571.898L208.986 563.368L178.704 526.775L159.043 511.678L140.957 494.106L126.439 476.109L104.122 457.258L88.359 456.064L70.5222 457.855L61.0644 469.456L60.5667 477.644L52.0216 485.918L42.8129 486.088L38.001 481.994L11.785 483.188L6.39248 479.094L5.06506 471.332L1 469.456L8.05182 467.579L16.6797 461.438L37.5863 437.81L38.4987 422.115L43.4765 411.453L50.2795 407.615L60.9816 407.018L66.2911 404.8L73.9237 396.27L119.138 340.997L124.364 328.885L125.775 319.417L132.578 310.29L142.533 303.04L153.899 299.542L170.159 263.547L170.989 258.344L173.561 255.188L187.167 247.852L200.69 232.498L207.741 222.689L211.972 211.686L223.089 193.773L230.805 191.299L243.83 192.835L248.393 199.573L252.292 188.655L250.55 183.708L239.35 176.714L238.935 173.643L241.839 170.828L250.798 167.587L257.601 159.398L280.748 151.295L289.459 142.168L290.288 134.32L297.091 126.559L315.426 116.749L335.918 113.338L350.602 97.8986L351.846 88.8571L362.797 68.7264L365.535 68.3854L365.95 71.456L368.356 73.1621L379.39 71.7122L399.632 62.0735L421.866 57.0407L431.905 52.1787L449.327 32.1339L453.475 32.2193L459.033 28.8925L467.412 17.3775L486.577 11.1505L489.065 14.3918L518.268 17.7185L545.314 7.9091L549.959 1L561.159 5.94742L559.915 13.7947L585.467 13.539L598.99 21.9834L620.228 18.8275L636.157 28.6364L657.561 25.1394L670.337 26.6747L693.567 25.3102L712.316 33.1574L732.891 45.0993L741.187 65.912L754.378 67.5327L755.125 63.438L770.141 60.4528L816.268 90.648L827.633 103.869L833.524 103.613L846.466 111.972L871.603 141.741L885.209 160.592L889.191 173.216L907.194 195.906L916.901 200.597L972.402 209.638L989.907 206.226L1017.7 209.127L1025 229.086L1007.74 242.563L997.208 246.061L991.152 261.926L992.977 280.606L989.824 293.913L985.51 305.001L975.721 306.707L965.018 321.123L964.769 333.149L979.703 343.13L981.943 341.424L979.62 333.149L979.703 324.961L992.064 317.967L1005.17 323.426L1011.23 331.188L1020.93 338.438L1024.67 338.182L1013.05 352.939L980.698 412.989L945.771 511.934L893.505 601.326L848.374 658.134L794.366 708.971L743.842 740.361L718.124 777.124L716.63 773.456L722.023 759.98L724.844 741.385L715.054 726.799L715.883 723.216L723.599 721.766L731.978 725.178L736.624 730.126L745.086 730.467L766.49 718.44L773.293 712.639L796.938 680.994L803.16 675.108L806.893 676.729L815.355 675.108L824.066 667.943L831.781 657.111L834.851 644.486L836.344 636.554L834.436 618.641L836.096 606.956L849.121 606.358L855.26 608.917L857.5 615.997L860.403 613.779L857.997 601.837L862.229 584.181L866.211 579.319L888.942 565.757L894.999 556.544L898.898 533.087L897.156 513.64L901.801 507.84L905.949 514.663L909.019 514.919L912.587 511.337L916.486 485.065L915.656 481.312L907.775 470.906L902.216 470.649L900.059 476.535L901.47 479.862L900.308 484.724L897.404 486.43L884.877 486.259L868.202 489.671L865.381 503.404L860.984 503.83L854.264 500.077L855.094 485.492L848.291 477.9L839.663 480.714L834.685 476.62L828.629 465.873L825.31 453.505L826.306 448.643L820.996 442.757L815.936 465.873L819.586 485.065L829.956 503.063L825.228 509.972L819.088 531.638L822.241 557.482L820.748 564.051L816.765 560.895L818.922 558.848L818.674 552.791L814.774 541.873L811.041 538.547L806.644 544.176L806.395 555.862L794.697 583.754L794.283 599.876L796.108 604.311L790.135 610.282L776.778 615.741L771.717 629.218L737.786 642.61L731.812 647.131L727.415 660.693L726.586 680.056L718.538 699.418L698.959 710.507L698.047 725.519L702.029 732.599L704.103 741.3L696.222 746.076L694.147 758.956L697.715 764.074L703.356 762.88L714.141 768.253L715.386 776.016L697.715 790.09L678.468 828.644L662.456 887.329L645.781 925.628L631.843 947.123L567.216 1011.35L549.213 1024.91Z" fill="black" stroke="white" stroke-width="0.5"/>
</svg>
