<svg width="1026" height="559" viewBox="0 0 1026 559" fill="none" xmlns="http://www.w3.org/2000/svg">
<path d="M78.4616 233.782L74.2101 218.26L44.0165 201.675L34.4494 203.589L12.7613 197.423L1.28003 167.656L29.3453 144.905L42.9536 121.729L89.0928 105.569L139.698 35.6155L141.612 20.9443L159.047 8.18702L180.31 34.1273L215.818 40.5061L238.781 37.9543L293 80.9046L333.4 125.981L371.246 148.307L411.858 158.513L465.014 144.692L531.778 150.858L556.656 148.519L596.204 125.981L620.867 127.044L659.352 103.443L705.704 54.7519L708.257 45.1835L741.214 18.8183L783.739 13.7151L831.366 31.7884L885.798 4.3596L917.053 0.320007L957.878 17.5426L1019.54 23.2832L1025.28 27.7485L966.17 133.21L869.426 242.287L793.307 318.406L728.668 415.789L657.864 477.025L636.601 520.187L608.536 558.247L595.778 530.393L519.446 482.978L509.665 482.34L474.37 465.543L436.948 434.712L409.306 382.619L294.063 317.343L215.818 297.144L78.4616 233.782Z" fill="black" stroke="white" stroke-width="0.5"/>
</svg>
