<svg width="913" height="1026" viewBox="0 0 913 1026" fill="none" xmlns="http://www.w3.org/2000/svg">
<path d="M375.642 996.768L283.646 1025L234.477 1004.7L217.347 993.913L202.119 971.072L141.213 941.887L122.18 925.392L118.373 912.386L129.158 900.014L133.282 854.968L128.525 842.596L83.16 794.696L66.6657 747.429L32.0874 726.175L1.63507 675.419L1 650.993L19.7152 600.872L29.8666 591.355L83.7951 591.672L119.642 615.464L200.533 584.058L222.422 566.611L231.938 548.212L207.831 460.975L210.367 433.06L231.305 381.669L233.842 283.013L210.05 246.531L146.922 184.673L106.636 105.367L99.6563 37.4806L120.91 1L325.838 95.5327L442.576 125.669L614.511 223.057L655.752 300.777L711.584 346.774L764.242 371.835L778.835 372.787L892.717 443.528L911.752 485.084L836.253 509.194L691.281 602.457L660.509 630.69L611.34 700.797L601.188 700.162L604.677 665.268L571.369 607.533L539.964 612.609L550.751 649.407H590.086L597.382 657.02L580.885 719.513L540.599 785.813L523.785 774.71L512.048 753.456L480.643 748.381L486.988 769.952L522.835 789.62L514.586 845.768L487.306 882.249L457.804 946.646L433.06 951.405L423.543 936.812L438.769 892.4L451.777 888.276L461.611 874.636L473.348 841.644L447.653 829.907L450.824 851.478L436.549 887.325L421.322 903.186L413.074 937.763L421.957 960.603L413.709 977.1L375.642 996.768Z" fill="#CCCCCC" stroke="white" stroke-width="0.5"/>
</svg>
