<svg width="1026" height="713" viewBox="0 0 1026 713" fill="none" xmlns="http://www.w3.org/2000/svg">
<path d="M775.689 704.902L770.29 705.262L756.252 695.064L747.494 684.027L728.418 676.468L710.661 686.306L710.541 697.823L713.901 709.462L710.661 711.861L689.065 697.823L689.545 680.907L704.902 660.631L719.06 658.231L725.418 642.514L729.858 623.918L727.218 597.643L735.976 575.328L751.214 570.288L776.169 551.333L765.611 523.258L725.418 519.179L700.103 523.978L619.839 511.26L605.922 504.782L579.887 472.867L574.008 455.111L554.452 428.596L518.099 386.724L499.263 374.847L490.744 375.207L474.307 356.61L407.6 314.139L385.885 318.218L384.805 323.977L365.609 321.697L353.611 292.423L323.977 275.746L296.742 264.588L263.269 266.508L244.792 264.348L213.718 269.268L190.803 255.47L159.969 259.789L140.413 248.032L103.46 248.392L105.26 237.234L89.0628 230.275L82.3441 239.993L43.2316 253.91L1 249.232L18.3964 214.078L27.1548 189.003L20.196 150.011L25.115 111.498L24.6354 80.9044L36.1531 59.9085L79.7046 60.1483L88.2229 55.5895L94.5816 55.7093L107.299 58.5889L111.018 64.7075L135.374 81.6242L167.527 81.9842L195.602 75.0257L259.069 95.1816L310.18 99.5006L322.417 107.059L324.457 111.978L343.293 126.135L388.524 131.175L439.514 129.615L455.471 152.41L457.631 146.411L466.509 141.852L477.547 141.612L487.985 131.295L477.787 95.4215L486.065 76.4653L494.704 67.1072L518.699 53.4297L561.531 58.2287L583.966 46.5913L592.724 36.153L599.803 18.3967L618.16 10.5983L631.477 8.91849L648.514 18.0368L658.232 18.3967L686.186 16.357L720.259 7.59893L729.258 7.71866L741.735 12.5176L779.168 43.7116L793.925 51.1501L811.202 53.0698L851.394 27.5147L867.591 10.3582L886.307 3.5194L887.747 8.19866L896.865 9.03859L917.741 6.279L921.7 1L984.568 1.35991L979.889 17.1969L986.008 36.993L985.168 41.6722L967.172 55.3493L955.414 49.5907L945.576 19.2363L945.336 32.674L952.414 65.3076L972.93 85.2234L979.649 96.6213L967.531 124.096L965.612 151.931L966.812 157.089L975.93 165.848L979.049 236.154L982.768 242.753L987.927 245.152L997.166 239.033L1001.36 247.672L1002.56 258.11L996.925 258.83L991.767 255.47L977.489 263.029L973.41 309.1L980.249 340.173L973.41 349.172L977.129 372.327L988.047 394.883L977.73 422.958L971.491 471.068L950.975 527.217L946.895 526.017L942.576 516.899L945.096 505.261L934.058 491.104L930.938 495.064L933.098 524.218L947.015 534.176L935.978 554.092L916.301 561.891L866.751 598.363L833.157 629.077L788.166 682.347L775.689 704.902ZM990.207 386.365L988.407 380.726L991.407 359.73L1000.52 330.936L995.726 316.778L997.645 304.541L1014.44 295.422L1017.08 296.142L1025 307.42L1018.52 338.134L1008.68 348.452L1001.6 363.089L1004 377.126L990.207 386.365ZM984.808 93.9818L962.372 69.7467L992.966 40.4724L995.966 40.9524L1003.76 53.5498L993.446 69.3868L984.808 93.9818Z" fill="black" stroke="white" stroke-width="0.5"/>
</svg>
