<svg width="624" height="1026" viewBox="0 0 624 1026" fill="none" xmlns="http://www.w3.org/2000/svg">
<path d="M562.677 958.417L519.834 969.767L505.926 980.478L485.464 989.271H473.075L436.865 997.264L416.723 1013.89L402.495 1021.08L398.818 1019.17L386.749 998.223L382.352 997.983L378.276 1024.36L372.761 1025L345.984 1019.56L320.965 1007.81L325.441 995.346L323.683 989.431L287.474 993.667L265.413 990.949L260.937 995.266L258.539 1003.26L252.544 1009.25L243.432 1008.85L238.556 984.075L229.684 954.421L221.371 939.394L212.179 928.923L202.747 936.676L190.997 955.779L177.968 1003.26L172.932 1005.1L140.4 993.667L115.701 979.999L84.2885 976.801L66.7035 968.568L47.5201 965.371L51.6767 946.667L61.4283 931.64L61.6681 917.972L57.1917 920.37L42.7242 937.076L37.4489 946.907L35.8502 961.934L33.1325 965.531L26.7379 965.371L19.0646 961.295L11.2312 934.598L17.1463 912.537L13.6293 888.158L9.47294 883.522L9.39293 870.972L13.1497 844.515L4.35722 826.531L4.75678 822.534L11.3112 815.42L12.5901 808.466L1.47981 797.755L1 790.881L16.0271 743.002L16.3469 719.423L20.6633 695.683L36.17 653.399L39.1274 651.241L42.5644 644.447L46.0814 619.349L54.8739 609.357L59.35 594.25L64.5455 586.097L77.4943 556.603L86.5266 521.033L95.7186 508.404L105.23 499.612L114.902 486.183L123.135 470.836L134.086 463.483L142.479 462.204L148.314 455.41L155.827 443.1L157.266 435.187L170.854 409.289L179.567 402.895L193.634 361.73L198.91 329.438L197.711 327.04L191.796 324.482L178.448 310.574L173.652 302.981L172.373 295.947L173.492 291.39L184.762 277.882L195.073 261.097L194.594 239.755L191.157 222.33L192.675 219.532L212.418 205.305L239.675 196.192L259.658 186.521L261.576 182.524L260.377 170.454L267.251 160.303L279.321 149.592L289.632 148.393L291.151 137.683L288.833 128.091L290.831 124.414L302.501 120.737L307.617 116.9L315.05 94.9193L306.897 84.2085L306.178 73.0182L308.496 70.7801L316.249 70.1407L322.004 67.1832L324.962 61.9077L325.202 56.7921L315.13 47.4402L308.176 46.3212L305.059 43.8432L296.906 30.5747L286.595 29.6154L271.648 31.6137L253.343 25.1393L257.58 20.0237L278.522 5.23647L294.188 1L301.142 1.39968L323.363 13.5493L334.553 14.1887L342.147 10.0323L356.055 12.3504L360.771 17.8655L361.41 26.0984L363.649 28.6563L373.4 28.8961L400.577 40.3263L407.291 48.5592L411.048 76.5352L416.163 88.5249L414.485 118.259L416.323 126.892L421.679 135.924L421.599 139.441L407.451 188.599L404.973 207.543L407.211 215.536L405.213 228.245L391.225 244.551L377.157 249.906L375.718 255.581L391.225 266.132L394.582 263.974L405.532 265.892L407.531 268.69L408.41 275.724L403.454 285.236L410.248 296.746L417.282 296.186L441.262 329.438L448.536 336.232L466.76 360.371L483.865 349.66L517.996 342.147L532.383 351.899L533.023 365.886L527.907 391.864L531.025 402.655L503.928 405.452L493.217 409.769L488.661 414.165L483.226 425.595L477.391 447.017L480.348 457.408L459.326 477.79L457.248 483.385L458.847 486.743L475.472 489.061L482.986 494.576L488.901 507.285L489.38 520.553L494.336 528.866L525.349 544.453L526.069 548.689L512.96 563.157L513.999 576.346L531.104 589.294L539.018 612.235L549.729 628.221L555.404 629.66L569.631 627.981L577.625 630.379L584.179 633.896L589.055 640.45L599.286 645.726L622.786 647.405L617.27 652.6L615.512 660.433L611.036 664.19L580.502 680.336L554.844 701.278L553.325 704.236L563.637 718.623L560.759 721.741L552.686 723.899L545.492 728.775L533.343 756.671L525.27 762.426L521.273 771.698L523.111 779.051L537.979 794.638L566.674 799.993L581.621 807.907L582.021 813.981L577.545 817.578L561.239 824.053L557.802 831.726L558.521 835.723L561.319 838.36L569.551 836.922L576.905 839.24L581.541 843.316L583.859 848.432L576.186 854.107L566.994 857.464L551.407 870.812L549.888 877.607L549.489 900.947L552.286 910.938L559.8 916.214L568.193 918.132L571.47 920.13L572.829 923.487L573.228 931.96L562.358 950.984L562.677 958.417Z" fill="black" stroke="white" stroke-width="0.5"/>
</svg>
