<svg width="1026" height="727" viewBox="0 0 1026 727" fill="none" xmlns="http://www.w3.org/2000/svg">
<path d="M228.369 655.19L227.192 642.072L233.582 637.532L287.229 641.232L330.786 631.309L288.238 605.242L264.694 596.834L217.438 608.269L194.566 635.177L177.245 640.559L165.472 639.718L142.77 603.561H134.697L119.562 610.624L103.417 628.45L50.4427 641.904L44.7249 657.208L41.5295 689.16L78.3593 691.347L96.3538 708.332L77.0141 726.494L61.2059 723.636L37.3252 726.494L29.2533 722.122L1.84117 693.028L1 686.133L19.3312 627.273L37.6619 607.933L77.182 590.948L85.5906 593.47L132.175 587.416L157.4 575.476L185.149 539.319L172.536 511.739L143.946 511.57L90.9722 520.484L61.2059 513.925L40.5206 487.186L31.103 467.509L9.74528 458.428L21.1809 450.188L61.8787 437.743L110.816 415.208L154.205 412.349L162.614 416.889L191.539 403.94L209.197 390.991L277.98 360.888L286.725 359.711L292.779 364.924L346.594 363.747L367.616 360.888L395.028 345.08L404.613 344.071L447.161 348.612L455.401 351.471L455.065 359.375L478.273 356.011L638.205 279.829L680.752 263.18L684.284 254.436L679.575 244.177L655.358 241.99L656.871 229.378L688.656 166.986L728.345 65.4097L716.068 53.4696L725.486 45.2294L746.339 40.6884L788.887 1L821.344 13.7812L832.611 92.9902L874.655 111.994L947.473 128.979L997.756 122.756L1025 140.583L1023.66 161.941L1007.85 189.016L1004.15 224.837L1023.32 338.858L1014.91 350.293L963.113 379.724L862.714 412.349L815.121 441.275L756.261 503.33L754.412 531.247L759.625 551.259L756.43 578.503L744.153 603.393L713.546 611.969L603.393 609.111L506.021 620.882L465.828 613.147L457.588 606.756L456.579 595.32L473.901 570.431L485.168 546.046L483.654 535.619L470.537 532.592L423.617 551.932L419.245 563.536L424.458 576.821L447.666 596.498L451.87 612.81L441.947 621.555L414.536 630.132L388.133 629.628L252.922 647.622L228.369 655.19ZM142.433 688.656L131.166 672.343L166.65 646.277L197.93 662.085L205.161 673.857L163.791 682.266L156.896 676.379H148.992L142.433 688.656Z" fill="#CCCCCC" stroke="white" stroke-width="0.5"/>
</svg>
