<svg width="771" height="1026" viewBox="0 0 771 1026" fill="none" xmlns="http://www.w3.org/2000/svg">
<path d="M459.072 216.571L458.787 218.916L444.293 234.192L441.238 235.4L440.953 245.632L454.95 233.553L459.782 224.956L474.845 213.729L481.169 205.629L488.487 160.654L496.658 155.68L504.545 154.827L516.411 148.291L521.029 147.367L524.297 148.22L524.866 159.801L523.445 162.998L513.355 176.285L490.548 188.719L490.334 193.835L495.521 194.687L498.718 188.932L506.889 186.73L508.453 192.627L504.261 196.251L506.037 198.382L535.95 163.069L542.06 165.414L560.391 158.806L589.097 161.862L585.828 144.738L590.162 143.104L607.357 143.672L620.004 146.372L638.691 153.833L646.08 154.614L661.356 164.419L671.304 164.633L680.256 173.869L693.685 183.248L711.448 187.369L719.69 186.019L723.669 191.419L726.085 191.774L737.382 191.135L754.861 195.824L756.708 189.43L751.948 186.09L763.813 183.39L767.863 184.172L767.224 187.156L763.955 197.316L765.589 202.432L770.066 206.269L767.366 217.14L754.648 233.269L725.303 261.476L701.714 264.745L696.03 263.608L675.283 287.765L675.567 300.555L669.314 313.557L655.885 326.702L650.059 340.77L645.512 341.978L640.041 349.438L642.599 363.08L651.338 368.978L654.038 378.072L652.049 388.446L643.949 408.838L655.175 428.803L659.083 449.977L658.301 467.243L656.809 471.15L627.678 502.555L626.47 520.176L627.322 535.168L630.946 551.51L643.593 566.005L655.033 572.47L656.241 576.023L657.164 581.991L654.393 597.623L652.333 600.749L651.48 609.346L647.927 619.72L639.33 629.028L623.059 631.088L618.441 629.099L612.544 629.383L595.278 635.494L584.478 636.275L566.715 623.344L559.539 621.852L549.165 623.201L541.989 627.465L534.031 629.312L532.397 627.18L526.429 628.886L522.876 630.449L509.376 644.02L509.447 647.288L504.971 653.47L490.69 667.68L474.063 674.146L453.672 692.335L444.222 696.101L436.761 696.385L424.683 707.256L417.009 709.814L398.464 712.087L379.138 717.487L364.004 731.342L357.041 752.445L354.27 773.547L349.794 790.031L339.491 809.5L337.36 811.063L334.944 816.889L334.02 827.689L325.494 845.31L313.415 855.257L308.228 869.467L313.273 883.251L316.612 905.846L328.904 927.588L328.62 931.283L323.22 941.23L322.297 986.419L314.126 1003.83L312.278 1011.36L311.923 1025L302.828 1020.31L298.494 1014.48L292.668 1011.29L285.634 1009.23L272.987 1010.65L267.942 1009.37L258.35 995.158L251.316 974.837L236.182 963.327L235.187 951.603L246.84 938.743L246.271 934.977L218.703 921.122L214.298 913.662L213.871 901.867L208.543 890.57L201.864 885.667L187.085 883.678L185.664 880.694L187.511 875.649L206.198 857.602L203.569 848.294L208.756 829.252L213.658 819.092L217.708 815.184L227.229 811.347L251.316 808.86L248.545 799.268L253.092 776.176L252.524 763.671L239.734 755.074L209.395 761.753L194.119 771.274L177.99 749.816L171.525 743.777L150.209 714.29L143.956 714.787L137.988 704.556L142.322 696.101L141.541 689.848L139.764 687.432L130.03 685.727L127.046 687.646L113.333 678.196L114.612 673.151L127.117 668.462L139.551 653.967L141.328 642.67L139.338 635.565L141.541 618.796L154.117 575.028L154.188 571.973L149.356 563.873L147.722 556.2L149.214 529.768L144.667 519.11L141.328 494.313L135.359 486.995L111.201 476.763L102.533 476.621L100.544 474.348L99.9752 467.029L95.7832 462.127L83.4203 460.066L76.5991 463.761L66.6519 463.122L46.8995 452.393L40.7891 451.966L26.8628 455.732L8.24722 468.877L4.48147 473.424L1 472.856L105.517 388.801L122.215 390.435L130.527 383.899L141.541 368.48L144.596 360.309L155.609 351.996L160.014 331.533L167.972 328.265L185.309 311.781L188.648 303.184L190.708 289.684L202.077 256.361L216.003 245.419L226.519 232.913L232.416 222.611L235.684 213.516L234.406 200.585L240.018 194.83L232.629 183.603L258.776 161.648L257.853 149.996L261.405 133.085L273.768 121.93L276.326 116.886L282.721 95.428L283.289 83.9886L280.234 80.2229L273.2 81.3597L271.281 77.8782L271.637 73.4729L279.736 72.4071L283.786 67.1493L288.831 35.9575L287.694 26.1524L291.034 18.834L296.505 15.6367H300.981L302.686 13.9314L302.26 10.0946L304.676 4.76574L308.797 1L318.318 7.96306L321.515 21.0366L329.97 21.8892L335.441 12.2262L339.775 33.0444L346.809 33.3286L348.87 29.8471L349.367 23.1682L355.407 22.884L367.415 26.6497L370.967 31.5523L360.807 43.6311L365.567 48.6048L365.709 52.5126L374.307 38.018L377.788 27.076H380.985L383.828 34.3233V38.4443L377.646 44.9811L375.728 52.0153L376.296 71.2703L378.143 73.6151L381.483 74.4676L385.604 73.4729L392.425 66.8651L389.085 59.7599L390.08 55.4968L399.459 45.3364L406.92 43.5601L422.053 47.7522L432.711 39.8654L433.067 46.4022L430.509 47.8942L422.48 58.7652L426.672 62.8862L427.382 60.2573L436.264 55.9942L440.385 61.6073L439.39 70.2045L450.972 82.6386L457.082 79.5123L468.308 84.2728L473.779 101.325L472.998 108.075L457.437 127.472L454.737 133.796L455.448 138.485L459.711 131.167L472.145 119.23L478.042 119.017L484.224 124.772L487.919 138.201L486 146.941L479.108 148.291L471.79 154.756L463.548 165.343L464.045 170.814L455.803 187.511L451.398 212.522L452.89 214.937L459.072 216.571ZM462.766 219.769L462.34 214.156L466.106 203.285L463.193 195.682L464.116 190.993L470.582 182.182L474.49 180.832L474.845 197.53L473.282 207.051L467.598 211.314L462.766 219.769ZM418.004 36.7391L414.877 33.4707L414.309 29.2076L419.993 21.2498L425.961 21.0366L430.793 24.0208L431.503 26.4366L430.153 28.9944L418.004 36.7391ZM442.872 66.4388L440.811 64.3072L441.238 60.5415L448.769 54.2179L452.18 54.7152L455.732 60.7546L454.737 65.0888L451.895 63.8809L442.872 66.4388ZM342.262 32.2628L340.77 31.9076L347.52 6.47097L349.652 7.11047L349.865 8.74463L346.952 30.4866L342.262 32.2628Z" fill="#CCCCCC" stroke="white" stroke-width="0.5"/>
</svg>
