<svg width="853" height="1026" viewBox="0 0 853 1026" fill="none" xmlns="http://www.w3.org/2000/svg">
<path d="M852.275 412.082L788.723 432.746L754.801 458.869L711.912 545.816L700.996 560.372L689.689 567.781L681.241 589.485L683.19 599.102L664.995 630.814L646.02 650.439L638.612 664.735L625.225 668.114L615.088 661.486L608.46 662.396L597.543 673.833L579.218 703.075L574.799 728.678L583.117 730.888L591.694 725.949L590.654 732.967L579.737 747.913L566.351 786.903L573.109 803.928L564.532 820.954L550.365 829.142L548.156 834.08L546.596 846.167L549.715 851.496L557.254 855.265L561.802 864.622L561.542 886.197L577.658 897.764L586.625 898.803L591.044 914.269L570.12 959.627L554.654 974.184L556.863 977.433L536.198 983.801L522.293 994.588L502.278 1024.35L480.834 1025L472.646 1003.69L462.508 996.278L444.833 990.039L431.706 976.133L425.728 963.266L401.944 952.479L364.904 927.786L324.875 922.327L308.109 923.627L280.297 934.024L259.112 936.493L247.545 933.374L183.472 930.775L184.252 913.619L175.414 904.782L174.374 892.175L189.191 851.756L208.685 822.513L208.815 813.546L198.808 798.47L165.537 792.361L148.511 783.914L135.385 749.213L121.738 681.631L111.861 648.229L114.98 642.381L102.763 536.329L101.334 531.39L89.3769 522.423L99.774 514.884L107.442 494.35L99.644 455.49L86.6474 429.367L92.8855 408.573L82.6185 358.276L92.2358 340.601L92.496 330.723L74.8201 310.059L69.1023 287.575L28.1628 204.137L4.76872 142.793L1 126.027L3.33929 107.052L23.8737 81.4488L38.0403 57.4051L39.4697 47.0078L41.9391 45.1883L41.4192 37.1305L36.2206 28.5527L44.6683 18.0255L132.265 15.1662L169.826 9.57769L196.728 1L292.903 11.2673L320.456 25.8234L345.669 45.3184L399.215 73.6508L418.19 80.4091L480.834 119.399L496.559 121.998L525.412 151.76L564.271 179.183L597.673 188.54L629.384 226.361L645.24 234.288L683.71 283.805L737.775 323.835L756.751 349.828L770.267 362.695L789.762 373.352L804.708 373.742L835.51 385.699L845.777 394.406L852.275 412.082Z" fill="#CCCCCC" stroke="white" stroke-width="0.5"/>
</svg>
