<svg width="1026" height="564" viewBox="0 0 1026 564" fill="none" xmlns="http://www.w3.org/2000/svg">
<path d="M272.457 403.687L253.926 403.33L258.737 387.205L256.866 379.81L254.639 375.445L243.503 369.209L242.256 365.2L244.661 354.954L237.801 337.582L228.09 331.88L178.2 320.744L112.808 319.051L115.213 314.062L137.397 293.928L145.326 282.97L147.909 272.279L145.949 261.321L139.891 253.214L132.497 249.294L117.53 223.012L110.67 219.092L102.652 217.399L92.5845 207.332L84.3882 186.129L66.5702 172.498L57.8394 140.248L50.0886 125.637L33.3397 116.015L32.6269 105.592L39.8432 106.482L43.585 101.85L44.2086 95.8807L42.4268 92.139L23.5398 83.8536L20.3325 77.9737L1 61.1357L1.35636 57.8393L6.87994 57.3938L11.3344 45.634L11.2453 33.9633L38.0614 30.4888L42.5159 27.0143L40.5559 14.9871L30.1324 1L190.049 67.6392L400.836 118.064L508.991 146.038L744.545 272.279L998.54 380.345L1025 391.57L1022.33 395.847L1008.34 401.727L989.72 415.892L964.241 440.748L949.541 448.41L943.661 446.806L930.03 448.41L929.585 453.399L912.479 464.98L893.949 473.8L881.12 490.104L877.2 500.616L871.765 503.111L861.342 496.429L854.571 495.271L833.457 495.717L827.398 498.033L821.786 502.042L818.578 509.704L796.841 540.707L763.254 551.843L755.77 557.99L738.487 562.534L729.31 562.801L730.023 544.003L717.907 545.785L686.28 538.925L639.597 534.738L594.25 538.123L588.37 532.956L568.147 531.442L536.431 547.745L512.109 553.269L497.142 547.3L484.669 534.471L470.059 544.805L470.415 388.452L470.86 378.652L475.048 372.327L475.671 351.391L473.355 343.551L481.997 333.038L486.273 322.882L475.939 324.664L449.479 347.738L435.224 356.736L416.872 377.94L399.499 383.909L393.709 393.53L377.583 402.35L272.457 403.687Z" fill="#CCCCCC" stroke="white" stroke-width="0.5"/>
</svg>
