<svg width="1024" height="1024" viewBox="0 0 1024 1024" fill="none" xmlns="http://www.w3.org/2000/svg">
<path d="M1012.3 425.776L1008.68 447.882L1006.14 451.477L992.536 458.486L980.567 458.845L976.305 460.822L965.242 470.078L947.198 494.162L940.579 500.003L931.42 502.699L925.798 517.796L924.348 544.126L900.863 576.837L892.158 581.51L890.072 584.925L892.883 602.268L892.158 610.805L881.186 631.834L863.051 652.143L866.224 659.781L863.686 670.655L850.628 679.911L847.001 690.784L831.314 705.971L819.889 727.898L802.207 744.703L733.657 785.411L722.231 795.656L715.522 809.495L707.905 819.2L658.849 839.599L648.784 846.968L640.351 867.906L640.533 878.241L627.385 910.232L621.309 916.343L606.258 925.419L596.192 928.295L593.2 931.44L578.964 1002.61L575.7 1009.98L554.119 1024L530.997 1003.06L500.076 986.077L463.897 1003.78L457.731 1010.52L442.679 1014.92L419.284 1018.79L397.885 1014.65L388.726 1008.81L384.465 970.441L381.563 964.151L373.402 955.613L371.317 933.417L375.941 921.375L370.138 914.276L369.322 910.322V884.531L361.252 866.828L355.811 842.205L355.358 835.735L360.708 823.514L360.889 809.045L346.653 799.25L343.207 792.061L341.757 772.65L326.795 756.295L307.118 753.959L293.427 756.745L276.833 754.139L254.527 736.525L249.449 723.135L235.485 726.101L215.808 750.724L206.74 745.332L191.144 752.611L181.351 754.049L165.574 747.848L142.361 743.445L110.987 745.512L77.7997 739.131L73.4473 730.953L55.4028 729.785L47.3327 734.458L24.6638 726.55L32.9153 661.219L29.0162 639.832L34.4568 627.071L43.3429 613.951L48.7835 559.763L42.7989 538.825L42.3455 523.278L35.4542 514.651L31.5551 513.842L27.1121 519.683L21.3088 490.388L14.1454 473.583L3.1737 455.431L0 438.986L36.5423 418.317L43.4337 410.409L5.34983 375.721L54.1334 273.097L64.289 272.558L61.7501 253.416L55.0402 252.248L84.3282 159.419L90.3129 148.995L62.2941 96.4241L62.5663 79.2601L68.9135 81.0575L78.1624 90.9423L97.6576 104.602L148.618 86.8986L167.206 68.9258L185.522 42.4158L186.338 31.9019L199.033 18.8715L222.518 19.1411L236.664 17.1641L243.645 20.2194L258.698 15.6365L270.939 4.40352L289.255 0L300.771 1.79739L307.662 12.1317L332.961 23.3647L356.718 27.5883L362.612 30.7336L365.06 38.4618L372.133 47.6281L399.608 58.0523L411.033 68.0271L422.277 73.1494L463.262 67.4879L474.687 60.2989L479.13 52.6604L492.097 47.1786L514.222 47.8077L528.639 57.1536L531.359 69.4649L533.535 71.7115L542.513 72.0711L561.826 64.163L570.985 64.7022L621.944 10.6938L634.095 9.52556L622.942 68.9258L606.62 75.2161L591.568 100.648L589.845 104.781L591.205 109.544L602.993 110.533L618.771 121.945L660.663 124.372L665.831 119.25L689.951 118.531L697.84 119.25L708.449 124.372L722.504 121.586L724.226 137.492L721.869 160.677L723.954 170.652L726.493 174.336L732.478 176.043L742.815 170.023L763.217 178.11L763.942 181.885L752.064 197.701L746.895 208.215L744.538 215.763L745.716 218.729L780.173 225.019L805.381 223.582L829.863 238.679L840.201 240.206L853.258 246.587L859.333 252.069L887.171 266.087L893.336 273.726L923.713 285.768L937.224 286.127L954.452 289.991L969.141 303.92L997.704 309.402L1021.82 329.531L1024 333.575L1018.74 335.822L1009.76 373.385L1015.11 402.231L1012.3 425.776Z" fill="#CCCCCC" stroke="white" stroke-width="0.5"/>
</svg>
