<svg width="1026" height="1026" viewBox="0 0 1026 1026" fill="none" xmlns="http://www.w3.org/2000/svg">
<path d="M1013.3 426.776L1009.68 448.882L1007.14 452.477L993.536 459.486L981.567 459.845L977.305 461.822L966.242 471.078L948.198 495.162L941.579 501.003L932.42 503.699L926.798 518.796L925.348 545.126L901.863 577.837L893.158 582.51L891.072 585.925L893.883 603.268L893.158 611.805L882.186 632.834L864.051 653.143L867.224 660.781L864.686 671.655L851.628 680.911L848.001 691.784L832.314 706.971L820.889 728.898L803.207 745.703L734.657 786.411L723.231 796.656L716.522 810.495L708.905 820.2L659.849 840.599L649.784 847.968L641.351 868.906L641.533 879.241L628.385 911.232L622.309 917.343L607.258 926.419L597.192 929.295L594.2 932.44L579.964 1003.61L576.7 1010.98L555.119 1025L531.997 1004.06L501.076 987.077L464.897 1004.78L458.731 1011.52L443.679 1015.92L420.284 1019.79L398.885 1015.65L389.726 1009.81L385.465 971.441L382.563 965.151L374.402 956.613L372.317 934.417L376.941 922.375L371.138 915.276L370.322 911.322V885.531L362.252 867.828L356.811 843.205L356.358 836.735L361.708 824.514L361.889 810.045L347.653 800.25L344.207 793.061L342.757 773.65L327.795 757.295L308.118 754.959L294.427 757.745L277.833 755.139L255.527 737.525L250.449 724.135L236.485 727.101L216.808 751.724L207.74 746.332L192.144 753.611L182.351 755.049L166.574 748.848L143.361 744.445L111.987 746.512L78.7997 740.131L74.4473 731.953L56.4028 730.785L48.3327 735.458L25.6638 727.55L33.9153 662.219L30.0162 640.832L35.4568 628.071L44.3429 614.951L49.7835 560.763L43.7989 539.825L43.3455 524.278L36.4542 515.651L32.5551 514.842L28.1121 520.683L22.3088 491.388L15.1454 474.583L4.1737 456.431L1 439.986L37.5423 419.317L44.4337 411.409L6.34983 376.721L55.1334 274.097L65.289 273.558L62.7501 254.416L56.0402 253.248L85.3282 160.419L91.3129 149.995L63.2941 97.4241L63.5663 80.2601L69.9135 82.0575L79.1624 91.9423L98.6576 105.602L149.618 87.8986L168.206 69.9258L186.522 43.4158L187.338 32.9019L200.033 19.8715L223.518 20.1411L237.664 18.1641L244.645 21.2194L259.698 16.6365L271.939 5.40352L290.255 1L301.771 2.79739L308.662 13.1317L333.961 24.3647L357.718 28.5883L363.612 31.7336L366.06 39.4618L373.133 48.6281L400.608 59.0523L412.033 69.0271L423.277 74.1494L464.262 68.4879L475.687 61.2989L480.13 53.6604L493.097 48.1786L515.222 48.8077L529.639 58.1536L532.359 70.4649L534.535 72.7115L543.513 73.0711L562.826 65.163L571.985 65.7022L622.944 11.6938L635.095 10.5256L623.942 69.9258L607.62 76.2161L592.568 101.648L590.845 105.781L592.205 110.544L603.993 111.533L619.771 122.945L661.663 125.372L666.831 120.25L690.951 119.531L698.84 120.25L709.449 125.372L723.504 122.586L725.226 138.492L722.869 161.677L724.954 171.652L727.493 175.336L733.478 177.043L743.815 171.023L764.217 179.11L764.942 182.885L753.064 198.701L747.895 209.215L745.538 216.763L746.716 219.729L781.173 226.019L806.381 224.582L830.863 239.679L841.201 241.206L854.258 247.587L860.333 253.069L888.171 267.087L894.336 274.726L924.713 286.768L938.224 287.127L955.452 290.991L970.141 304.92L998.704 310.402L1022.82 330.531L1025 334.575L1019.74 336.822L1010.76 374.385L1016.11 403.231L1013.3 426.776Z" fill="black" stroke="white" stroke-width="0.5"/>
</svg>
