<svg width="1026" height="709" viewBox="0 0 1026 709" fill="none" xmlns="http://www.w3.org/2000/svg">
<path d="M613.394 1.29001L616.105 4.22637L618.928 5.50632L621.224 5.54396L625.478 3.96285L627.85 4.37695L628.076 7.99093L632.631 12.3955L636.283 13.7884L639.595 12.9978L644.715 13.4119L652.056 16.9882L653.901 19.4729L650.475 31.9712L647.802 37.6181L658.079 51.6976L664.329 69.6169L665.044 78.1248L668.319 82.3411L668.507 84.0352L662.409 89.5315L663.764 95.5171L666.249 101.465L663.35 112.909L661.204 116.523L662.296 135.271L665.609 143.44L670.201 146.602L672.385 149.99L676.639 166.291L676.413 168.474L672.121 173.444L665.195 172.201L664.667 176.493L683.528 193.132L685.486 193.283L692.864 198.215L698.436 204.426L702.351 212.106L704.346 212.369L709.391 210.788L718.275 214.703L716.619 206.76L719.442 198.139L720.383 191.627L718.99 184.85L722.077 173.67L725.917 168.926L730.736 166.329L738.604 163.656L740.674 160.305L746.697 160.079L757.351 163.581L764.391 171.26L767.854 180.709L774.706 181.575L779.411 179.843L784.72 174.535L792.362 172.465L793.943 170.997L794.018 169.001L789.726 163.693L788.861 160.945L789.275 158.461L793.604 148.522L793.867 144.268L800.117 132.862L808.888 120.589L808.775 118.029L878.382 118.293L879.888 136.589L878.269 142.047L878.947 150.593L879.85 153.153L886.25 156.353L886.928 157.896L885.61 160.494L885.422 168.437L892.311 175.928L893.666 176.644L896.301 175.966L903.228 180.596L905.299 187.486L905.449 190.987L906.579 192.681L924.046 206.873L941.288 216.435L943.66 219.823L948.742 223.927L955.819 226.449L964.741 231.38L973.249 233.827L978.369 234.392L983.338 237.479L983.639 239.775L988.42 244.82L998.585 250.241L1002.73 258.41L1009.77 261.384L1012.97 259.088L1018.16 257.77L1018.88 259.577L1018.39 262.513L1025.2 268.8L912.64 510.636L909.703 515.568L904.245 519.822L902.061 523.473L901.948 527.727L905.035 536.499L906.466 538.644L910.494 540.828L916.442 546.701L918.851 551.444L919.416 558.823L921.562 560.968L917.119 565.486L916.366 567.782L916.141 570.643L917.421 573.805L916.404 577.608L911.887 584.459L908.649 586.868L907.068 590.068L907.444 593.268L909.929 598.426L911.661 605.729L906.466 621.615L902.023 641.267L897.468 644.015L717.334 645.219L717.484 642.584L716.129 641.154L710.896 640.1L703.668 644.165L701.635 650.716L699.076 651.431L686.878 645.859L684.319 635.017L681.984 634.264L678.295 634.754L676.564 633.963L671.858 621.653L662.296 617.964L657.289 613.183L654.277 605.993L652.583 604.148L644.489 599.894L603.87 600.12L598.675 609.757L592.2 611.639L592.538 616.044L591.56 616.872L582.223 618.867L577.744 624.853L577.555 627.375L580.943 630.011L581.583 631.705L580.228 635.544L577.179 639.874L569.424 644.429L569.01 651.243L569.913 656.739L555.344 655.007L547.326 656.438L542.808 660.466L536.07 660.089L532.908 658.019L531.176 657.944L524.588 662.687L522.593 665.849L523.571 672.437L514.009 684.333L511.45 684.634L508.89 682.639L506.48 674.131L505.05 673.792L498.123 677.632L493.229 682.187L488.072 683.656L485.173 683.166L481.107 685.048L479.564 687.044L479.074 689.754L474.481 692.728L473.089 692.803L464.392 684.032L461.682 682.639L450.878 683.881L435.97 682.903L436.572 687.759L436.008 689.867L430.173 696.681L422.945 698.864L410.672 708.502L303.344 662.838L203.809 609.494L158.107 597.673L69.0375 576.365L1.46353 548.206L1.20001 545.759L3.83521 534.767L8.42798 529.497L26.9497 516.433L35.4576 515.53L37.2269 514.401L40.9162 508.528L41.2174 504.65L34.667 487.747L36.0976 483.268L40.5397 475.023L45.3584 470.054L48.8218 465.348L50.4029 461.659L51.5323 455.109L50.4406 450.139L52.9628 442.46L54.1298 433.764L56.878 430.94L70.6563 424.804L78.9007 420.173L83.2299 416.258L84.8864 410.988L87.8227 409.595L93.1308 409.181L99.3423 405.68L112.669 395.403L121.779 393.784L127.464 394.876L143.237 390.283L148.884 387.384L155.736 386.029L168.272 387.459L173.165 381.474L175.537 376.015L179.641 373.719L187.697 374.472L190.106 376.505L195.075 375.601L199.216 372.815L205.654 373.267L206.821 375.262L206.745 379.704L212.806 384.561L223.46 384.862L225.644 383.356L227.375 380.42L226.961 378.951L231.366 360.43L256.588 220.501L260.955 209.508L257.228 190.836L257.68 189.857L252.786 185.904L247.215 175.552L247.064 173.707L249.511 168.474L247.553 161.774L246.16 160.268L239.761 158.047L228.354 149.2L221.051 140.617L221.804 97.2865L236.448 96.3077L243.036 91.9032L256.212 88.4398L266.301 95.0654L270.894 95.4795L275.675 93.8607L273.83 87.4986L274.959 81.0236L269.802 73.118L267.656 71.0851L263.327 68.8264L257.642 70.8216L247.139 68.5252L233.7 68.864L233.474 31.5948L237.088 31.7454L242.057 29.5619L250.64 27.3032L261.332 30.5783L332.971 30.8042L331.24 28.3196L328.266 27.7926L326.835 23.2751L330.411 16.0095L335.795 17.5153L338.091 23.2374L341.366 28.2067L343.851 29.5243L346.976 29.5619L353.037 27.2655L360.34 19.3976L361.544 16.2353L366.288 11.5673L375.887 6.33453L380.744 8.06623L385.148 17.7788L391.247 25.2703L394.033 30.1642L396.517 36.8652L397.383 42.7003L395.538 56.3656L396.291 62.9913L408.338 60.1678L439.622 86.7457L442.596 87.7998L452.007 88.5903L460.666 84.8258L467.065 78.426L475.009 74.0591L483.253 73.645L485.361 74.7367L488.26 78.8024L488.185 82.4541L484.006 88.8539L485.399 92.5431L487.582 93.5596L492.589 90.8491L494.697 87.4233L495.563 82.567L499.328 78.2001L501.097 77.3343L504.862 78.0119L506.932 77.3343L508.476 74.8497L510.207 66.1535L512.127 64.7606L517.812 63.4054L528.842 56.7421L532.493 58.8126L535.995 57.7209L542.018 53.8057L545.858 47.7448L553.801 43.1896L561.443 45.2602L570.327 39.0486L572.398 35.9617L574.054 25.9479L573.941 21.0916L576.84 17.6282L580.718 16.0471L587.268 15.9718L592.312 14.5036L600.067 8.48033L603.681 7.08745L612.265 5.95806L613.394 1.29001Z" fill="#CCCCCC" stroke="white" stroke-width="0.5"/>
</svg>
