<svg width="913" height="1026" viewBox="0 0 913 1026" fill="none" xmlns="http://www.w3.org/2000/svg">
<path d="M896.605 605.67L912.362 772.791L730.272 772.102L730.567 778.799L707.621 810.903L691.273 840.743L690.584 851.871L679.259 877.87L678.176 884.37L680.441 891.559L691.667 905.445L691.47 910.664L687.334 914.505L667.343 919.921L653.457 933.807L641.147 938.337L623.224 936.072L614.163 911.354L595.747 891.263L567.877 882.105L552.121 882.696L546.704 891.46L526.122 898.453L513.516 905.248L503.471 917.656L495.396 946.905L499.04 964.631L496.578 981.669L489.192 1004.22L493.525 1025L470.283 1014.76L457.087 1018.89L451.867 1018.2L441.626 998.115L427.05 981.865L407.748 968.965L402.627 968.571L353.289 925.042L354.667 913.816L372.788 917.065L384.014 904.066L384.605 898.354L373.477 855.712L367.765 846.849L355.751 838.576L347.084 817.206L344.228 768.163L349.842 758.709L357.425 728.771L350.925 713.211L347.38 697.552L363.334 683.174L362.841 678.743L354.273 667.713L352.402 645.456L336.054 598.58L309.169 561.748L316.161 546.976L325.123 514.28L320.298 507.781L301.094 498.425L287.701 497.342L279.034 499.41L269.482 495.766L257.566 484.244L256.975 474.79L250.77 473.706L239.642 477.842L233.635 477.744L226.249 474.396L219.158 466.714L222.112 462.184L224.378 439.73L221.423 437.564L188.235 435.299L151.305 436.678L118.708 429.784L116.738 423.875L124.617 406.543L125.799 391.967L118.61 374.536L99.5043 339.674L92.3153 319.387L87.6867 282.753L95.4666 268.178L94.6787 258.723L76.5584 239.027L55.2865 228.588L27.6136 201.211L17.1747 183.386L14.3188 173.932L3.09202 167.53L0.630005 163.69L0.925434 155.417L3.7813 152.168L12.6446 152.857L23.6744 159.357L32.9316 176.394L38.9389 177.28L72.3238 172.356L85.6186 173.341L104.428 179.151L110.436 190.969L115.852 209.976L121.17 213.422L130.624 212.635L137.912 206.233L147.267 202.294L178.584 203.87L183.213 204.362L196.114 216.278L202.023 217.756L207.144 216.377L213.151 201.014L226.052 202.393L240.331 211.551L279.034 256.557L289.375 262.17L296.367 263.253L311.237 256.557L318.525 245.429L319.51 237.156L311.336 209.976L314.881 192.84L319.411 190.083L338.418 189.59L348.365 178.757L363.629 168.023L371.015 168.515L409.422 181.712L415.233 180.038L423.111 172.947L433.255 169.992L444.383 173.439L454.526 171.371L467.723 158.766L477.571 156.304L488.896 158.569L499.828 157.879L506.524 149.509L507.017 136.214L536.856 118.389L559.802 120.26L586.983 116.419L595.747 105.291L596.634 98.2987L602.444 87.2689L609.83 85.9886L628.049 77.1254L638.882 66.8834L649.813 50.0433L637.996 14.9842L626.473 11.4389L632.776 9.66628L646.859 10.3556L654.737 13.507L689.895 12.5222L700.334 3.16657L707.621 1L721.113 5.13618L726.333 18.0371L736.575 25.9156L741.302 39.4074L734.703 87.6628L727.613 101.253L715.303 108.147L715.894 116.321L731.749 120.358L747.703 118.192L770.846 126.169L788.769 137.002L780.103 151.084L780.004 162.409L803.049 196.09L805.018 211.354L790.148 240.111L771.634 253.996L764.543 268.768L767.202 272.609L767.793 293.979L753.316 317.713L744.453 344.992L741.4 370.302L740.514 396.596L750.165 415.012L755.187 432.344L755.089 446.132L770.55 456.275L779.414 458.245L780.694 464.942L776.164 515.659L777.345 522.947L795.17 525.802L788.671 537.325L793.201 542.249L814.374 549.536L828.752 568.444L854.948 595.428L896.605 605.67Z" fill="black" stroke="white" stroke-width="0.5"/>
</svg>
